<svg version="1.1" id="Layer_1" xmlns="http://www.w3.org/2000/svg" xmlns:xlink="http://www.w3.org/1999/xlink" x="0px" y="0px"
	 width="100%" viewBox="0 0 225 225" enable-background="new 0 0 225 225" xml:space="preserve">
<path fill="#074B8E" opacity="1.000000" stroke="none" 
	d="
M133.000000,226.000000 
	C88.666672,226.000000 44.833340,226.000000 1.000006,226.000000 
	C1.000004,151.000000 1.000004,76.000015 1.000002,1.000016 
	C75.999992,1.000011 150.999985,1.000011 225.999969,1.000005 
	C225.999985,75.999985 225.999985,150.999969 226.000000,225.999969 
	C195.166672,226.000000 164.333328,226.000000 133.000000,226.000000 
M136.187851,20.678253 
	C136.187851,20.678253 136.220627,20.649527 135.948990,20.040361 
	C134.793289,19.041353 133.637573,18.042345 131.811478,16.463844 
	C131.811478,24.996702 131.811478,32.474472 131.240417,40.450268 
	C130.770340,45.974297 130.300262,51.498325 129.950760,57.761562 
	C129.883041,58.502243 129.815308,59.242924 129.416245,60.608620 
	C129.335449,61.307358 129.254669,62.006100 129.313950,62.653248 
	C129.313950,62.653248 129.365158,62.793442 128.809174,63.427635 
	C128.613068,65.368546 128.416962,67.309456 128.225586,69.126656 
	C128.225586,69.126656 128.347961,69.145432 127.724564,69.485512 
	C126.837708,70.650238 125.413803,71.712860 125.169121,72.999687 
	C124.545242,76.280807 124.447754,79.662018 124.125824,83.441994 
	C124.125824,83.441994 124.159241,83.879761 124.142776,84.250534 
	C124.279198,84.445587 124.415619,84.640640 124.552048,84.835693 
	C124.654366,84.591507 124.756683,84.347321 125.665085,83.976753 
	C129.009109,82.600243 132.353134,81.223732 136.409882,79.887917 
	C139.086349,79.922165 142.509354,78.338280 142.303192,83.138351 
	C139.985764,84.469231 137.668335,85.800117 134.849976,87.484604 
	C130.646103,89.328110 126.429619,91.143539 122.241676,93.022552 
	C117.504707,95.147903 112.972168,98.158730 108.014923,99.228889 
	C103.963326,100.103546 101.171249,101.611778 98.245033,105.026962 
	C97.434631,105.169235 96.607155,105.248596 95.816414,105.463280 
	C85.248177,108.332520 74.685074,111.220688 63.244473,114.037025 
	C55.825008,115.032104 48.405540,116.027184 40.426746,117.106384 
	C39.943119,117.380936 39.459492,117.655495 38.121178,117.936165 
	C36.409401,117.961121 34.697620,117.986084 32.050751,118.012146 
	C27.447052,118.012161 22.823902,118.275787 18.245140,117.937897 
	C13.684652,117.601364 11.565035,119.487381 11.231384,124.533165 
	C12.925588,124.347168 14.457973,124.178940 16.161818,124.715416 
	C17.486460,125.503624 18.777504,126.356285 20.142233,127.067581 
	C23.782843,128.965042 27.455141,130.801697 31.114841,132.662537 
	C30.936756,132.878845 30.758673,133.095154 30.580587,133.311462 
	C33.847324,133.311462 37.114059,133.311462 40.606770,133.233505 
	C40.606770,133.233505 40.733498,133.436188 40.576744,134.166122 
	C43.682758,135.519669 46.672192,137.438385 49.919243,138.108170 
	C56.520699,139.469833 63.261299,140.156967 70.711662,140.991913 
	C71.489319,141.002716 72.266968,141.013535 73.337631,141.741959 
	C75.029564,142.159012 76.715927,142.907837 78.414383,142.936356 
	C86.234550,143.067596 94.058838,142.933762 101.880157,143.024170 
	C106.660835,143.079422 107.729485,144.442825 106.167412,148.801437 
	C104.510696,153.424118 102.240402,157.830734 100.655327,162.474136 
	C99.210457,166.706787 98.324493,171.130219 97.199821,176.010010 
	C97.141891,176.365005 97.083969,176.720016 96.705956,177.119705 
	C96.705956,177.119705 96.386787,177.170929 95.651611,177.217758 
	C92.723145,182.430023 89.794685,187.642288 86.151115,192.997803 
	C85.174706,195.085129 84.198296,197.172455 83.179604,199.170547 
	C83.179604,199.170547 83.273636,199.200714 82.550781,199.216217 
	C80.845177,200.405609 78.823906,201.340332 77.570137,202.894287 
	C76.963730,203.645905 77.798805,205.560516 78.507027,207.123215 
	C78.683655,207.177170 78.860275,207.231125 79.272072,207.854034 
	C81.491043,207.861343 83.710007,207.868637 86.534622,208.362793 
	C91.969513,210.353027 95.286034,207.252975 98.229889,203.179764 
	C96.811104,202.925827 95.671883,203.427109 94.492661,203.802795 
	C93.006393,204.276260 91.487473,204.647202 90.504364,204.703262 
	C91.049477,203.838730 91.594582,202.974197 92.461800,201.816696 
	C92.670334,201.608963 92.835495,201.371124 93.192345,200.819290 
	C93.192345,200.819290 93.560425,200.800568 94.425766,200.868729 
	C96.704132,200.558105 99.024841,200.424530 101.250191,199.892258 
	C104.057014,199.220901 106.408531,198.033859 104.379204,194.122040 
	C104.571320,194.072662 104.763443,194.023285 105.751038,193.987320 
	C109.549980,192.314865 113.797516,191.233917 117.014534,188.794159 
	C119.902542,186.603897 121.657799,182.920029 124.087883,179.425461 
	C124.366898,179.258408 124.645905,179.091354 125.662331,178.920197 
	C126.927536,178.232269 128.340088,177.722961 129.430634,176.823318 
	C132.838135,174.012329 135.703049,170.057404 139.571365,168.423279 
	C143.722916,166.669556 143.895370,164.564636 143.549469,160.966583 
	C144.011368,160.612000 144.473282,160.257401 145.507843,160.155945 
	C149.470810,159.281052 156.830536,149.423447 156.972275,144.960052 
	C156.972275,144.960052 156.882172,144.919159 157.628189,144.926529 
	C158.680679,144.270676 160.134445,143.864304 160.721954,142.919357 
	C165.295273,135.563705 169.758438,128.137390 174.123260,120.655685 
	C175.335464,118.577850 176.103241,116.240730 177.669449,113.684036 
	C179.423004,111.753288 181.176544,109.822548 183.149185,108.531677 
	C184.610443,108.326057 186.740753,108.643051 187.394226,107.806458 
	C188.771332,106.043472 189.415390,103.692673 190.286179,101.552940 
	C191.624969,98.263176 190.352158,96.821167 187.078430,96.259720 
	C191.724350,83.845306 196.370255,71.430885 201.600464,58.852356 
	C202.343063,57.889362 203.085648,56.926373 203.861206,55.174793 
	C203.862503,54.122787 203.863785,53.070778 204.413666,51.535194 
	C205.003830,47.154285 210.554672,43.840721 207.729263,38.360882 
	C205.459412,39.405453 203.773727,40.737968 201.981949,40.900455 
	C196.788300,41.371429 194.159012,43.916054 194.035461,49.028561 
	C194.035461,49.028561 194.113312,49.082020 193.257339,49.036987 
	C189.010056,48.750401 185.441696,49.310528 185.210709,55.000996 
	C183.434128,56.295002 181.657532,57.589005 179.256073,58.893650 
	C176.666809,59.265842 173.513275,58.838570 171.609634,60.182163 
	C168.014435,62.719654 165.138168,66.275726 161.121567,70.238831 
	C159.924011,67.285133 159.399643,65.991814 159.164627,64.003853 
	C159.242203,62.296322 159.829178,60.409767 159.303574,58.914223 
	C157.604645,54.080135 155.899475,49.166569 153.429001,44.709106 
	C151.126999,40.555584 147.843155,36.946213 144.424957,32.736584 
	C143.658157,31.705513 142.891357,30.674442 142.113098,28.976122 
	C141.115753,27.610083 140.118408,26.244043 138.923676,24.302708 
	C138.292221,23.516802 137.660751,22.730896 137.069489,21.383718 
	C136.790192,21.147882 136.510880,20.912048 136.187851,20.678253 
M196.540176,188.755112 
	C196.724136,187.531784 196.908096,186.308472 196.843002,184.282410 
	C196.598862,181.813919 196.354706,179.345413 196.523163,176.307571 
	C194.184341,165.921570 192.079559,155.474777 189.403946,145.176285 
	C188.143631,140.325348 185.786880,135.759277 183.302689,130.759827 
	C182.531677,129.405197 181.760666,128.050568 181.001846,126.092232 
	C180.906052,122.811890 178.921478,123.807785 178.128067,125.251022 
	C177.002640,127.298279 176.714844,129.806015 176.053345,132.046616 
	C176.053345,132.046616 176.124847,132.055878 175.426468,132.157761 
	C172.026291,136.731308 168.501526,141.219101 165.271988,145.910110 
	C163.288055,148.791824 161.755768,151.984467 159.912354,155.852737 
	C160.609238,157.285599 161.306137,158.718475 162.233826,160.727814 
	C162.943604,160.935089 163.653397,161.142365 164.561066,161.334885 
	C164.561066,161.334885 164.625259,161.522629 164.449280,162.258194 
	C165.484390,163.764511 166.284866,165.529083 167.601608,166.725433 
	C170.704041,169.544205 173.976288,172.195312 177.347015,174.688187 
	C178.392746,175.461548 179.976135,175.507919 181.633759,175.794067 
	C181.633759,175.794067 181.935959,175.935394 182.076996,176.640808 
	C185.956985,181.701004 189.836990,186.761215 194.246979,192.512604 
	C195.089996,190.644943 195.457504,189.830719 195.797455,188.860703 
	C195.797455,188.860703 195.950104,188.819122 196.540176,188.755112 
z"/>
<path fill="#FAFDFD" opacity="1.000000" stroke="none" 
	d="
M73.044624,141.024353 
	C72.266968,141.013535 71.489319,141.002716 69.966415,140.948273 
	C67.754303,140.287445 66.338684,139.459503 64.812019,139.088318 
	C56.801331,137.140579 48.762531,135.308472 40.733498,133.436188 
	C40.733498,133.436188 40.606770,133.233505 40.163879,133.108948 
	C37.590725,132.135803 35.460461,131.287186 33.838600,130.367157 
	C36.371731,129.877045 38.396458,129.458344 40.421185,129.039658 
	C40.459782,128.533707 40.498379,128.027756 40.536976,127.521797 
	C35.920452,127.338470 32.198349,126.123856 32.041626,120.639877 
	C32.425419,120.141525 32.716778,119.908119 33.420349,119.700439 
	C38.760971,119.153717 43.739487,118.848465 48.604176,117.936234 
	C53.832043,116.955887 58.953053,115.405685 64.120689,114.104141 
	C74.685074,111.220688 85.248177,108.332520 95.816414,105.463280 
	C96.607155,105.248596 97.434631,105.169235 99.029167,105.029678 
	C110.517075,100.437927 121.259026,95.928322 131.880310,91.150475 
	C133.343750,90.492165 134.208801,88.503670 135.350891,87.130997 
	C137.668335,85.800117 139.985764,84.469231 142.973938,83.108536 
	C147.055206,81.548744 150.679337,80.364731 153.832443,78.417892 
	C160.721924,74.164101 167.372101,69.522728 174.492233,65.044510 
	C176.541229,63.651390 178.218018,62.253448 179.913757,60.901440 
	C179.932739,60.947369 179.850143,60.892086 180.158112,60.867321 
	C180.992004,60.279823 181.517914,59.717091 182.173157,59.022835 
	C182.302505,58.891315 182.668732,58.846821 183.052856,58.870869 
	C185.301224,57.278339 187.165451,55.661766 189.016266,54.021667 
	C189.002884,53.998146 189.046646,54.030342 189.430359,54.037239 
	C192.542908,54.037460 194.100662,52.851902 193.981262,49.725204 
	C194.018082,49.509396 194.113312,49.082020 194.113312,49.082020 
	C194.113312,49.082020 194.035461,49.028561 194.423615,48.997337 
	C195.766495,48.267506 196.632584,47.264595 197.700241,46.953560 
	C198.829147,46.624668 200.150024,46.954624 201.281754,47.415489 
	C198.302460,62.862312 193.641068,77.296394 186.547516,90.901611 
	C186.612991,87.883369 186.956406,84.978027 187.436447,80.916801 
	C183.692886,85.002022 179.458496,87.416161 181.112915,91.926483 
	C182.984985,93.123535 184.094833,93.833199 184.949188,94.774315 
	C181.182755,101.520424 177.660355,108.028992 174.191971,114.566231 
	C174.002350,114.923599 174.263397,115.520081 174.141022,116.325752 
	C168.272324,126.070549 162.577240,135.494858 156.882172,144.919159 
	C156.882172,144.919159 156.972275,144.960052 156.646622,145.082474 
	C152.525696,150.104187 148.730438,155.003494 144.935181,159.902802 
	C144.473282,160.257401 144.011368,160.612000 142.928314,161.108917 
	C141.066956,161.996613 139.826736,162.741989 138.490692,163.345764 
	C138.300797,163.154221 138.206741,163.104263 138.112671,163.054321 
	C138.236130,163.232971 138.359589,163.411636 138.357834,163.891357 
	C137.156403,165.399078 136.080185,166.605728 135.022095,167.472290 
	C135.132889,165.913971 135.225540,164.695740 135.318192,163.477493 
	C134.876205,163.234787 134.434235,162.992081 133.992249,162.749359 
	C132.609512,164.681778 131.100525,166.545441 129.972610,168.616623 
	C129.791962,168.948380 131.316177,170.208557 131.914032,171.358154 
	C129.492172,174.092606 127.208542,176.508438 124.924911,178.924286 
	C124.645905,179.091354 124.366898,179.258408 123.735413,179.737823 
	C122.949303,180.375565 122.515663,180.700958 121.649734,181.019348 
	C116.066704,181.073212 109.913818,185.835052 108.080536,191.095764 
	C108.046211,191.038834 108.146912,191.125641 107.794662,191.111755 
	C106.668770,191.785416 105.895119,192.472931 105.094910,193.101746 
	C105.068352,193.043015 105.159706,193.133957 104.772446,193.098465 
	C101.694550,193.179245 98.706215,192.894775 98.827156,197.291260 
	C97.547859,198.065399 96.458122,198.599274 95.101097,199.191650 
	C94.548561,199.471863 94.263313,199.693588 93.846863,200.123993 
	C93.715668,200.332672 93.560425,200.800568 93.560425,200.800568 
	C93.560425,200.800568 93.192345,200.819290 93.203041,200.849213 
	C93.213737,200.879135 93.030098,200.592407 92.878967,200.530884 
	C92.364426,200.492264 92.124710,200.676880 92.006462,201.008881 
	C92.004250,200.994537 92.026833,201.014313 91.730286,201.037445 
	C90.967049,201.401794 90.500343,201.743011 89.863846,202.327606 
	C89.131142,202.738556 88.568237,202.906158 87.841972,202.800430 
	C87.002144,200.592010 86.325668,198.656906 85.659660,196.719559 
	C85.670128,196.717300 85.681152,196.700180 86.039871,196.691833 
	C87.583611,194.428986 88.768639,192.174500 89.996361,189.638000 
	C90.393250,188.914749 90.747444,188.473495 91.298248,188.190598 
	C92.038811,188.409241 93.019318,188.628128 93.063408,188.506790 
	C94.440498,184.716629 95.726280,180.893280 97.026047,177.075012 
	C97.083969,176.720016 97.141891,176.365005 97.418411,175.646881 
	C97.637001,175.283752 98.037239,175.013123 98.223190,174.835388 
	C98.509338,174.335754 98.609528,174.013855 98.802635,173.797745 
	C98.895546,173.903534 98.682137,173.719818 99.046310,173.717667 
	C103.805359,170.912735 104.779060,166.780914 103.989441,161.710571 
	C104.001503,161.461700 104.229126,161.018402 104.391411,160.849533 
	C104.746162,160.413574 104.820549,160.116882 104.846985,159.899902 
	C104.917114,160.009232 104.764633,159.793411 105.116211,159.731506 
	C107.890717,153.860764 110.313637,148.051941 112.979706,141.660187 
	C111.344704,141.416885 110.152557,141.239471 108.516403,141.059357 
	C96.396469,141.045868 84.720551,141.035110 73.044624,141.024353 
M156.020660,80.465668 
	C153.570709,83.085304 151.120758,85.704941 148.670807,88.324577 
	C149.264465,88.952873 149.858109,89.581161 150.451767,90.209450 
	C151.889038,88.962761 153.819748,87.980461 154.659378,86.413513 
	C156.331848,83.292297 158.131180,81.214310 162.007660,80.577705 
	C164.977158,80.090065 167.784760,78.140205 170.433441,76.473663 
	C171.201447,75.990440 171.172806,74.241081 171.509354,73.072144 
	C170.465744,72.896980 169.128830,72.219681 168.427017,72.629631 
	C164.418655,74.971069 160.561493,77.571320 156.020660,80.465668 
z"/>
<path fill="#F5FBFB" opacity="1.000000" stroke="none" 
	d="
M181.935959,175.935394 
	C181.935959,175.935394 181.633759,175.794067 181.453232,175.479370 
	C175.723557,170.617340 170.174408,166.069992 164.625259,161.522629 
	C164.625259,161.522629 164.561066,161.334885 164.225357,161.192154 
	C163.260773,160.750061 162.631912,160.450699 162.003036,160.151337 
	C161.306137,158.718475 160.609238,157.285599 160.323608,155.400085 
	C165.864868,147.316910 170.994858,139.686401 176.124847,132.055878 
	C176.124847,132.055878 176.053345,132.046616 176.374603,131.924347 
	C178.127136,130.100037 179.558395,128.397980 180.989655,126.695938 
	C181.760666,128.050568 182.531677,129.405197 183.545654,131.242950 
	C184.559525,135.260788 185.220963,138.823685 186.122116,142.324890 
	C188.682693,152.273422 191.302917,162.207153 193.998596,172.119812 
	C194.448593,173.774582 195.394043,175.294632 196.110550,176.876923 
	C196.354706,179.345413 196.598862,181.813919 196.792267,184.979919 
	C196.477722,186.724655 196.213913,187.771881 195.950104,188.819122 
	C195.950104,188.819122 195.797455,188.860703 195.519958,188.791473 
	C190.806961,184.459946 186.371460,180.197678 181.935959,175.935394 
z"/>
<path fill="#FDFEFC" opacity="1.000000" stroke="none" 
	d="
M142.124557,29.643372 
	C142.891357,30.674442 143.658157,31.705513 144.713364,33.310936 
	C147.430588,38.658924 149.527603,43.641953 152.373932,48.152084 
	C155.770981,53.534817 157.043365,62.442154 153.487167,65.014595 
	C148.701080,68.476692 143.306244,71.092171 138.207367,74.129242 
	C135.964249,75.465317 133.806625,76.944916 130.729202,78.926689 
	C130.449448,78.025299 129.492264,76.561546 129.688766,75.273857 
	C130.305771,71.230438 131.536499,67.282677 132.197708,63.243546 
	C133.184189,57.217426 134.013382,51.157333 134.610138,45.082287 
	C134.736023,43.800911 133.568771,42.392509 132.999039,40.580086 
	C133.048248,36.746010 133.095779,33.374496 133.484802,30.030937 
	C136.223557,30.700497 138.620804,31.342098 141.234009,31.734486 
	C141.674850,30.871304 141.899704,30.257338 142.124557,29.643372 
z"/>
<path fill="#E1F3F8" opacity="1.000000" stroke="none" 
	d="
M132.997360,41.042641 
	C133.568771,42.392509 134.736023,43.800911 134.610138,45.082287 
	C134.013382,51.157333 133.184189,57.217426 132.197708,63.243546 
	C131.536499,67.282677 130.305771,71.230438 129.688766,75.273857 
	C129.492264,76.561546 130.449448,78.025299 130.729202,78.926689 
	C133.806625,76.944916 135.964249,75.465317 138.207367,74.129242 
	C143.306244,71.092171 148.701080,68.476692 153.487167,65.014595 
	C157.043365,62.442154 155.770981,53.534817 152.373932,48.152084 
	C149.527603,43.641953 147.430588,38.658924 144.996643,33.491295 
	C147.843155,36.946213 151.126999,40.555584 153.429001,44.709106 
	C155.899475,49.166569 157.604645,54.080135 159.303574,58.914223 
	C159.829178,60.409767 159.242203,62.296322 158.666275,64.424896 
	C153.842392,67.548676 149.460083,70.165726 145.209717,72.981911 
	C141.952515,75.140030 138.861877,77.549522 135.697159,79.847221 
	C132.353134,81.223732 129.009109,82.600243 125.095772,83.959541 
	C124.526459,83.942329 124.159241,83.879761 124.159241,83.879761 
	C124.159241,83.879761 124.125824,83.441994 124.439529,83.027367 
	C125.951485,78.123634 127.149719,73.634537 128.347961,69.145432 
	C128.347961,69.145432 128.225586,69.126656 128.463745,68.855530 
	C128.923004,66.654076 129.144089,64.723763 129.365158,62.793442 
	C129.365158,62.793442 129.313950,62.653248 129.495972,62.410378 
	C129.701187,61.439541 129.724380,60.711575 129.747589,59.983604 
	C129.815308,59.242924 129.883041,58.502243 130.038574,57.000362 
	C130.753845,52.159847 131.381302,48.080532 132.215485,43.755676 
	C132.613937,42.687641 132.805649,41.865143 132.997360,41.042641 
z"/>
<path fill="#144C82" opacity="1.000000" stroke="none" 
	d="
M136.053528,79.867569 
	C138.861877,77.549522 141.952515,75.140030 145.209717,72.981911 
	C149.460083,70.165726 153.842392,67.548676 158.521606,64.772217 
	C159.399643,65.991814 159.924011,67.285133 161.121567,70.238831 
	C165.138168,66.275726 168.014435,62.719654 171.609634,60.182163 
	C173.513275,58.838570 176.666809,59.265842 179.619324,58.939030 
	C179.982574,58.984409 180.083664,59.084602 180.039200,59.385124 
	C179.946533,60.087791 179.898331,60.489937 179.850143,60.892086 
	C179.850143,60.892086 179.932739,60.947369 179.589172,60.977573 
	C177.537079,62.351746 175.828552,63.695713 174.120026,65.039688 
	C167.372101,69.522728 160.721924,74.164101 153.832443,78.417892 
	C150.679337,80.364731 147.055206,81.548744 143.356964,83.019485 
	C142.509354,78.338280 139.086349,79.922165 136.053528,79.867569 
M149.546722,76.774864 
	C156.316681,74.940544 156.316681,74.940544 155.873581,70.835426 
	C149.728287,72.500099 148.969772,73.122124 149.546722,76.774864 
z"/>
<path fill="#2A577F" opacity="1.000000" stroke="none" 
	d="
M186.825470,91.014519 
	C193.641068,77.296394 198.302460,62.862312 201.586578,47.534077 
	C202.619492,48.828899 203.242279,50.423836 203.865067,52.018772 
	C203.863785,53.070778 203.862503,54.122787 203.534576,55.642391 
	C202.477341,57.078819 201.746765,58.047649 201.016174,59.016476 
	C196.370255,71.430885 191.724350,83.845306 186.789383,96.902840 
	C185.310257,100.994576 184.120178,104.443199 182.930084,107.891815 
	C181.176544,109.822548 179.423004,111.753288 177.137360,114.023994 
	C175.841736,114.911057 175.078201,115.458160 174.314667,116.005264 
	C174.263397,115.520081 174.002350,114.923599 174.191971,114.566231 
	C177.660355,108.028992 181.182755,101.520424 185.190796,94.546852 
	C186.067078,93.063461 186.446274,92.038994 186.825470,91.014519 
z"/>
<path fill="#1E4C75" opacity="1.000000" stroke="none" 
	d="
M98.037239,175.013123 
	C98.037239,175.013123 97.637001,175.283752 97.414597,175.376663 
	C98.324493,171.130219 99.210457,166.706787 100.655327,162.474136 
	C102.240402,157.830734 104.510696,153.424118 106.167412,148.801437 
	C107.729485,144.442825 106.660835,143.079422 101.880157,143.024170 
	C94.058838,142.933762 86.234550,143.067596 78.414383,142.936356 
	C76.715927,142.907837 75.029564,142.159012 73.191132,141.383148 
	C84.720551,141.035110 96.396469,141.045868 108.639725,141.392410 
	C109.217720,142.944122 109.509758,144.240158 109.190331,145.362106 
	C107.812843,150.200363 106.256111,154.987595 104.764633,159.793411 
	C104.764633,159.793411 104.917114,160.009232 104.632645,160.030151 
	C104.308487,160.373520 104.268806,160.695969 104.229126,161.018402 
	C104.229126,161.018402 104.001503,161.461700 103.725647,161.945816 
	C101.860565,166.193222 100.271347,169.956528 98.682137,173.719818 
	C98.682137,173.719818 98.895546,173.903534 98.580093,173.947617 
	C98.188835,174.332169 98.113037,174.672653 98.037239,175.013123 
z"/>
<path fill="#204E77" opacity="1.000000" stroke="none" 
	d="
M135.100433,87.307800 
	C134.208801,88.503670 133.343750,90.492165 131.880310,91.150475 
	C121.259026,95.928322 110.517075,100.437927 99.435547,104.965912 
	C101.171249,101.611778 103.963326,100.103546 108.014923,99.228889 
	C112.972168,98.158730 117.504707,95.147903 122.241676,93.022552 
	C126.429619,91.143539 130.646103,89.328110 135.100433,87.307800 
z"/>
<path fill="#204E75" opacity="1.000000" stroke="none" 
	d="
M196.316864,176.592255 
	C195.394043,175.294632 194.448593,173.774582 193.998596,172.119812 
	C191.302917,162.207153 188.682693,152.273422 186.122116,142.324890 
	C185.220963,138.823685 184.559525,135.260788 183.857803,131.395081 
	C185.786880,135.759277 188.143631,140.325348 189.403946,145.176285 
	C192.079559,155.474777 194.184341,165.921570 196.316864,176.592255 
z"/>
<path fill="#144C82" opacity="1.000000" stroke="none" 
	d="
M204.139374,51.776985 
	C203.242279,50.423836 202.619492,48.828899 201.691864,47.115372 
	C200.150024,46.954624 198.829147,46.624668 197.700241,46.953560 
	C196.632584,47.264595 195.766495,48.267506 194.444153,49.039848 
	C194.159012,43.916054 196.788300,41.371429 201.981949,40.900455 
	C203.773727,40.737968 205.459412,39.405453 207.729263,38.360882 
	C210.554672,43.840721 205.003830,47.154285 204.139374,51.776985 
M200.501740,44.595665 
	C200.501740,44.595665 200.442688,44.490826 200.501740,44.595665 
z"/>
<path fill="#24547E" opacity="1.000000" stroke="none" 
	d="
M174.141022,116.325760 
	C175.078201,115.458160 175.841736,114.911057 176.840088,114.193260 
	C176.103241,116.240730 175.335464,118.577850 174.123260,120.655685 
	C169.758438,128.137390 165.295273,135.563705 160.721954,142.919357 
	C160.134445,143.864304 158.680679,144.270676 157.255188,144.922852 
	C162.577240,135.494858 168.272324,126.070549 174.141022,116.325760 
z"/>
<path fill="#184D7B" opacity="1.000000" stroke="none" 
	d="
M33.008133,119.674706 
	C32.716778,119.908119 32.425419,120.141525 31.715260,120.677696 
	C30.865921,121.052048 30.435390,121.123650 29.548653,121.135651 
	C27.156887,120.968369 25.148600,120.487885 23.304243,120.847702 
	C21.017988,121.293724 18.867548,122.435936 16.491373,123.460693 
	C16.324306,123.643974 15.990357,124.010704 15.990357,124.010704 
	C14.457973,124.178940 12.925588,124.347168 11.231384,124.533165 
	C11.565035,119.487381 13.684652,117.601364 18.245140,117.937897 
	C22.823902,118.275787 27.447052,118.012161 32.525063,118.288712 
	C33.002293,118.935081 33.005211,119.304893 33.008133,119.674706 
z"/>
<path fill="#194778" opacity="1.000000" stroke="none" 
	d="
M135.003967,167.812378 
	C136.080185,166.605728 137.156403,165.399078 138.368439,163.850266 
	C138.504242,163.508102 138.586517,163.487366 138.586517,163.487366 
	C139.826736,162.741989 141.066956,161.996613 142.652161,161.218842 
	C143.895370,164.564636 143.722916,166.669556 139.571365,168.423279 
	C135.703049,170.057404 132.838135,174.012329 129.430634,176.823318 
	C128.340088,177.722961 126.927536,178.232269 125.293617,178.922241 
	C127.208542,176.508438 129.492172,174.092606 131.893082,171.346405 
	C132.010345,171.016022 132.032257,171.058945 132.275497,170.979919 
	C132.616455,170.610077 132.714172,170.319229 132.943893,169.736618 
	C133.718582,168.900696 134.361282,168.356537 135.003967,167.812378 
z"/>
<path fill="#184D7B" opacity="1.000000" stroke="none" 
	d="
M40.655121,133.801147 
	C48.762531,135.308472 56.801331,137.140579 64.812019,139.088318 
	C66.338684,139.459503 67.754303,140.287445 69.582855,141.013351 
	C63.261299,140.156967 56.520699,139.469833 49.919243,138.108170 
	C46.672192,137.438385 43.682758,135.519669 40.655121,133.801147 
z"/>
<path fill="#034C95" opacity="1.000000" stroke="none" 
	d="
M183.039642,108.211746 
	C184.120178,104.443199 185.310257,100.994576 186.718109,97.265137 
	C190.352158,96.821167 191.624969,98.263176 190.286179,101.552940 
	C189.415390,103.692673 188.771332,106.043472 187.394226,107.806458 
	C186.740753,108.643051 184.610443,108.326057 183.039642,108.211746 
z"/>
<path fill="#204D76" opacity="1.000000" stroke="none" 
	d="
M175.775665,132.106812 
	C170.994858,139.686401 165.864868,147.316910 160.377777,154.992462 
	C161.755768,151.984467 163.288055,148.791824 165.271988,145.910110 
	C168.501526,141.219101 172.026291,136.731308 175.775665,132.106812 
z"/>
<path fill="#1F4E7A" opacity="1.000000" stroke="none" 
	d="
M164.537262,161.890411 
	C170.174408,166.069992 175.723557,170.617340 181.293030,175.525909 
	C179.976135,175.507919 178.392746,175.461548 177.347015,174.688187 
	C173.976288,172.195312 170.704041,169.544205 167.601608,166.725433 
	C166.284866,165.529083 165.484390,163.764511 164.537262,161.890411 
z"/>
<path fill="#184D7B" opacity="1.000000" stroke="none" 
	d="
M33.330196,130.438568 
	C35.460461,131.287186 37.590725,132.135803 40.050896,133.147934 
	C37.114059,133.311462 33.847324,133.311462 30.580587,133.311462 
	C30.758673,133.095154 30.936756,132.878845 31.114841,132.662537 
	C27.455141,130.801697 23.782843,128.965042 20.142233,127.067581 
	C18.777504,126.356285 17.486460,125.503624 16.076088,124.363060 
	C15.990357,124.010704 16.324306,123.643974 16.775909,123.681091 
	C22.492289,125.857361 27.757069,127.996513 32.989792,130.242523 
	C32.957737,130.349396 33.330196,130.438568 33.330196,130.438568 
z"/>
<path fill="#1F4E7A" opacity="1.000000" stroke="none" 
	d="
M182.006470,176.288101 
	C186.371460,180.197678 190.806961,184.459946 195.533752,188.869370 
	C195.457504,189.830719 195.089996,190.644943 194.246979,192.512604 
	C189.836990,186.761215 185.956985,181.701004 182.006470,176.288101 
z"/>
<path fill="#214E7E" opacity="1.000000" stroke="none" 
	d="
M122.082031,181.026352 
	C122.515663,180.700958 122.949303,180.375565 123.647850,179.972626 
	C121.657799,182.920029 119.902542,186.603897 117.014534,188.794159 
	C113.797516,191.233917 109.549980,192.314865 105.416824,193.773804 
	C105.082603,193.560303 105.159706,193.133957 105.159706,193.133957 
	C105.159706,193.133957 105.068352,193.043015 105.408875,193.056015 
	C106.548569,192.421219 107.347748,191.773438 108.146912,191.125641 
	C108.146912,191.125641 108.046211,191.038834 108.413658,191.010010 
	C113.214745,187.662918 117.648392,184.344635 122.082031,181.026352 
z"/>
<path fill="#144471" opacity="1.000000" stroke="none" 
	d="
M33.420349,119.700439 
	C33.005211,119.304893 33.002293,118.935081 32.992607,118.288155 
	C34.697620,117.986084 36.409401,117.961121 38.832108,117.901917 
	C40.024048,117.585876 40.505062,117.304070 40.986076,117.022270 
	C48.405540,116.027184 55.825008,115.032104 63.682579,114.070587 
	C58.953053,115.405685 53.832043,116.955887 48.604176,117.936234 
	C43.739487,118.848465 38.760971,119.153717 33.420349,119.700439 
z"/>
<path fill="#24547E" opacity="1.000000" stroke="none" 
	d="
M145.221512,160.029373 
	C148.730438,155.003494 152.525696,150.104187 156.616180,145.043488 
	C156.830536,149.423447 149.470810,159.281052 145.221512,160.029373 
z"/>
<path fill="#055099" opacity="1.000000" stroke="none" 
	d="
M89.982635,205.062378 
	C91.487473,204.647202 93.006393,204.276260 94.492661,203.802795 
	C95.671883,203.427109 96.811104,202.925827 98.229889,203.179764 
	C95.286034,207.252975 91.969513,210.353027 86.416565,207.869034 
	C87.526550,206.604309 88.754593,205.833344 89.982635,205.062378 
z"/>
<path fill="#DFF1F8" opacity="1.000000" stroke="none" 
	d="
M85.649185,196.721817 
	C86.325668,198.656906 87.002144,200.592010 87.631927,203.077423 
	C84.735786,204.846848 81.886345,206.065964 79.036903,207.285080 
	C78.860275,207.231125 78.683655,207.177170 78.361496,206.726013 
	C79.901848,203.952789 81.587746,201.576752 83.273636,199.200714 
	C83.273636,199.200714 83.179604,199.170547 83.460312,199.066254 
	C84.377075,198.215240 85.013130,197.468521 85.649185,196.721817 
z"/>
<path fill="#1E4E77" opacity="1.000000" stroke="none" 
	d="
M91.101639,188.032242 
	C90.747444,188.473495 90.393250,188.914749 89.741463,189.812836 
	C88.722443,191.259506 88.001015,192.249329 87.175507,193.143799 
	C87.071411,193.048447 86.866226,192.854553 86.866226,192.854553 
	C89.794685,187.642288 92.723145,182.430023 95.875687,177.528931 
	C94.433723,181.237488 92.767677,184.634857 91.101639,188.032242 
z"/>
<path fill="#D2F6FD" opacity="1.000000" stroke="none" 
	d="
M132.999039,40.580086 
	C132.805649,41.865143 132.613937,42.687641 132.165024,43.353035 
	C131.875702,42.114697 131.843597,41.033470 131.811478,39.952240 
	C131.811478,32.474472 131.811478,24.996702 131.811478,16.463844 
	C133.637573,18.042345 134.793289,19.041353 135.719528,20.441502 
	C134.672058,21.902018 133.854034,22.961395 133.035019,24.447113 
	C133.070435,26.583296 133.106873,28.293139 133.143295,30.002979 
	C133.095779,33.374496 133.048248,36.746010 132.999039,40.580086 
z"/>
<path fill="#1F4E79" opacity="1.000000" stroke="none" 
	d="
M93.993095,200.834656 
	C93.560425,200.800568 93.715668,200.332672 94.134483,200.111328 
	C94.824997,199.637711 95.096687,199.385437 95.368378,199.133148 
	C96.458122,198.599274 97.547859,198.065399 99.144272,197.251999 
	C101.091644,196.167313 102.532349,195.362137 103.973053,194.556976 
	C106.408531,198.033859 104.057014,199.220901 101.250191,199.892258 
	C99.024841,200.424530 96.704132,200.558105 93.993095,200.834656 
z"/>
<path fill="#16466D" opacity="1.000000" stroke="none" 
	d="
M128.036255,69.315475 
	C127.149719,73.634537 125.951485,78.123634 124.446442,82.807953 
	C124.447754,79.662018 124.545242,76.280807 125.169121,72.999687 
	C125.413803,71.712860 126.837708,70.650238 128.036255,69.315475 
z"/>
<path fill="#1E4E77" opacity="1.000000" stroke="none" 
	d="
M79.154488,207.569550 
	C81.886345,206.065964 84.735786,204.846848 87.795288,203.350739 
	C88.568237,202.906158 89.131142,202.738556 90.159149,202.304535 
	C91.007393,201.948715 91.390533,201.859329 91.864456,201.855652 
	C91.955246,201.941360 92.139702,202.109665 92.139694,202.109665 
	C91.594582,202.974197 91.049477,203.838730 90.243500,204.882812 
	C88.754593,205.833344 87.526550,206.604309 86.113739,207.625610 
	C83.710007,207.868637 81.491043,207.861343 79.154488,207.569550 
z"/>
<path fill="#144C82" opacity="1.000000" stroke="none" 
	d="
M193.685333,49.059502 
	C194.113312,49.082020 194.018082,49.509396 193.685623,49.857033 
	C191.917664,51.479897 190.482147,52.755119 189.046646,54.030342 
	C189.046646,54.030342 189.002884,53.998146 188.718597,54.082138 
	C187.735352,54.568111 187.036392,54.970093 186.233582,55.258770 
	C186.129715,55.145466 185.921585,54.919216 185.921585,54.919216 
	C185.441696,49.310528 189.010056,48.750401 193.685333,49.059502 
z"/>
<path fill="#1D4B78" opacity="1.000000" stroke="none" 
	d="
M131.525940,40.201256 
	C131.843597,41.033470 131.875702,42.114697 131.958282,43.598572 
	C131.381302,48.080532 130.753845,52.159847 129.978287,56.630760 
	C130.300262,51.498325 130.770340,45.974297 131.525940,40.201256 
z"/>
<path fill="#DFF0F7" opacity="1.000000" stroke="none" 
	d="
M91.298233,188.190598 
	C92.767677,184.634857 94.433723,181.237488 96.243279,177.505524 
	C96.386787,177.170929 96.705956,177.119705 96.865997,177.097351 
	C95.726280,180.893280 94.440498,184.716629 93.063408,188.506790 
	C93.019318,188.628128 92.038811,188.409241 91.298233,188.190598 
z"/>
<path fill="#1E4E77" opacity="1.000000" stroke="none" 
	d="
M82.912209,199.208466 
	C81.587746,201.576752 79.901848,203.952789 78.098587,206.638702 
	C77.798805,205.560516 76.963730,203.645905 77.570137,202.894287 
	C78.823906,201.340332 80.845177,200.405609 82.912209,199.208466 
z"/>
<path fill="#204D76" opacity="1.000000" stroke="none" 
	d="
M180.995758,126.394089 
	C179.558395,128.397980 178.127136,130.100037 176.382477,131.959534 
	C176.714844,129.806015 177.002640,127.298279 178.128067,125.251022 
	C178.921478,123.807785 180.906052,122.811890 180.995758,126.394089 
z"/>
<path fill="#E1F3F8" opacity="1.000000" stroke="none" 
	d="
M133.036026,24.020775 
	C133.854034,22.961395 134.672058,21.902018 135.855347,20.746082 
	C136.220627,20.649527 136.187851,20.678253 136.282471,20.923470 
	C136.594498,21.427456 136.811905,21.686224 137.029297,21.944988 
	C137.660751,22.730896 138.292221,23.516802 138.943024,24.669353 
	C138.962387,25.035997 138.803635,25.193913 138.446289,25.111046 
	C136.404648,24.692377 134.720337,24.356575 133.036026,24.020775 
z"/>
<path fill="#DFF1F8" opacity="1.000000" stroke="none" 
	d="
M104.176132,194.339508 
	C102.532349,195.362137 101.091644,196.167313 99.333824,197.011749 
	C98.706215,192.894775 101.694550,193.179245 104.772446,193.098465 
	C105.159706,193.133957 105.082603,193.560303 105.019081,193.767105 
	C104.763443,194.023285 104.571320,194.072662 104.176132,194.339508 
z"/>
<path fill="#1E4E77" opacity="1.000000" stroke="none" 
	d="
M85.659653,196.719559 
	C85.013130,197.468521 84.377075,198.215240 83.481461,199.110870 
	C84.198296,197.172455 85.174706,195.085129 86.508667,192.926178 
	C86.866226,192.854553 87.071411,193.048447 87.096596,193.455078 
	C86.641571,194.807861 86.161362,195.754028 85.681152,196.700180 
	C85.681152,196.700180 85.670128,196.717300 85.659653,196.719559 
z"/>
<path fill="#144C82" opacity="1.000000" stroke="none" 
	d="
M182.668732,58.846821 
	C182.668732,58.846821 182.302505,58.891315 181.846802,58.991898 
	C180.955276,59.089851 180.519470,59.087227 180.083664,59.084602 
	C180.083664,59.084602 179.982574,58.984409 179.931763,58.933708 
	C181.657532,57.589005 183.434128,56.295002 185.566147,54.960106 
	C185.921585,54.919216 186.129715,55.145466 186.054398,55.521946 
	C184.875626,56.881226 183.772186,57.864025 182.668732,58.846821 
z"/>
<path fill="#E1F3F8" opacity="1.000000" stroke="none" 
	d="
M142.118835,29.309746 
	C141.899704,30.257338 141.674850,30.871304 141.159698,31.383352 
	C140.180817,29.252258 139.492233,27.223083 138.803635,25.193913 
	C138.803635,25.193913 138.962387,25.035997 139.041718,24.957001 
	C140.118408,26.244043 141.115753,27.610083 142.118835,29.309746 
z"/>
<path fill="#144C82" opacity="1.000000" stroke="none" 
	d="
M201.308319,58.934418 
	C201.746765,58.047649 202.477341,57.078819 203.518097,56.036682 
	C203.085648,56.926373 202.343063,57.889362 201.308319,58.934418 
z"/>
<path fill="#1F4E7A" opacity="1.000000" stroke="none" 
	d="
M196.245148,188.787109 
	C196.213913,187.771881 196.477722,186.724655 196.916794,185.381287 
	C196.908096,186.308472 196.724136,187.531784 196.245148,188.787109 
z"/>
<path fill="#16466D" opacity="1.000000" stroke="none" 
	d="
M129.087158,63.110538 
	C129.144089,64.723763 128.923004,66.654076 128.461380,68.917381 
	C128.416962,67.309456 128.613068,65.368546 129.087158,63.110538 
z"/>
<path fill="#1F4E7A" opacity="1.000000" stroke="none" 
	d="
M162.118439,160.439575 
	C162.631912,160.450699 163.260773,160.750061 164.126419,161.199539 
	C163.653397,161.142365 162.943604,160.935089 162.118439,160.439575 
z"/>
<path fill="#16466D" opacity="1.000000" stroke="none" 
	d="
M129.581909,60.296112 
	C129.724380,60.711575 129.701187,61.439541 129.425934,62.436176 
	C129.254669,62.006100 129.335449,61.307358 129.581909,60.296112 
z"/>
<path fill="#16466D" opacity="1.000000" stroke="none" 
	d="
M124.151009,84.065147 
	C124.159241,83.879761 124.526459,83.942329 124.692734,84.022736 
	C124.756683,84.347321 124.654366,84.591507 124.552048,84.835693 
	C124.415619,84.640640 124.279198,84.445587 124.151009,84.065147 
z"/>
<path fill="#184D7B" opacity="1.000000" stroke="none" 
	d="
M40.706413,117.064331 
	C40.505062,117.304070 40.024048,117.585876 39.259453,117.898865 
	C39.459492,117.655495 39.943119,117.380936 40.706413,117.064331 
z"/>
<path fill="#D2F6FD" opacity="1.000000" stroke="none" 
	d="
M137.049393,21.664354 
	C136.811905,21.686224 136.594498,21.427456 136.304352,20.922451 
	C136.510880,20.912048 136.790192,21.147882 137.049393,21.664354 
z"/>
<path fill="#1E4E77" opacity="1.000000" stroke="none" 
	d="
M93.085518,200.991150 
	C92.835495,201.371124 92.670334,201.608963 92.300751,201.963181 
	C92.139702,202.109665 91.955246,201.941360 91.933708,201.668747 
	C91.912170,201.396133 92.026833,201.014313 92.026833,201.014313 
	C92.026833,201.014313 92.004250,200.994537 92.295158,200.980164 
	C92.734077,200.841324 92.882088,200.716858 93.030098,200.592407 
	C93.030098,200.592407 93.213737,200.879135 93.085518,200.991150 
z"/>
<path fill="#FDFCF7" opacity="1.000000" stroke="none" 
	d="
M156.336823,80.274658 
	C160.561493,77.571320 164.418655,74.971069 168.427017,72.629631 
	C169.128830,72.219681 170.465744,72.896980 171.509354,73.072144 
	C171.172806,74.241081 171.201447,75.990440 170.433441,76.473663 
	C167.784760,78.140205 164.977158,80.090065 162.007660,80.577705 
	C158.131180,81.214310 156.331848,83.292297 154.659378,86.413513 
	C153.819748,87.980461 151.889038,88.962761 150.451767,90.209450 
	C149.858109,89.581161 149.264465,88.952873 148.670807,88.324577 
	C151.120758,85.704941 153.570709,83.085304 156.336823,80.274658 
z"/>
<path fill="#F6FBF4" opacity="1.000000" stroke="none" 
	d="
M186.547516,90.901611 
	C186.446274,92.038994 186.067078,93.063461 185.446274,94.315392 
	C184.094833,93.833199 182.984985,93.123535 181.112915,91.926483 
	C179.458496,87.416161 183.692886,85.002022 187.436447,80.916801 
	C186.956406,84.978027 186.612991,87.883369 186.547516,90.901611 
z"/>
<path fill="#F9FCF2" opacity="1.000000" stroke="none" 
	d="
M33.838600,130.367157 
	C33.330196,130.438568 32.957737,130.349396 32.924419,129.897797 
	C31.313934,127.504936 29.736767,125.563660 28.137415,123.595078 
	C28.672306,122.907692 29.338579,122.051468 30.004856,121.195244 
	C30.435390,121.123650 30.865921,121.052048 31.622820,120.942642 
	C32.198349,126.123856 35.920452,127.338470 40.536976,127.521797 
	C40.498379,128.027756 40.459782,128.533707 40.421185,129.039658 
	C38.396458,129.458344 36.371731,129.877045 33.838600,130.367157 
z"/>
<path fill="#DFF1F8" opacity="1.000000" stroke="none" 
	d="
M121.649734,181.019348 
	C117.648392,184.344635 113.214745,187.662918 108.447983,191.066956 
	C109.913818,185.835052 116.066704,181.073212 121.649734,181.019348 
z"/>
<path fill="#DFF0F7" opacity="1.000000" stroke="none" 
	d="
M105.116211,159.731506 
	C106.256111,154.987595 107.812843,150.200363 109.190331,145.362106 
	C109.509758,144.240158 109.217720,142.944122 109.083725,141.395142 
	C110.152557,141.239471 111.344704,141.416885 112.979706,141.660187 
	C110.313637,148.051941 107.890717,153.860764 105.116211,159.731506 
z"/>
<path fill="#F8FBF5" opacity="1.000000" stroke="none" 
	d="
M135.022095,167.472290 
	C134.361282,168.356537 133.718582,168.900696 132.787567,169.887207 
	C132.310898,170.551758 132.155243,170.794891 132.032257,171.058945 
	C132.032257,171.058945 132.010345,171.016022 132.031311,171.027771 
	C131.316177,170.208557 129.791962,168.948380 129.972610,168.616623 
	C131.100525,166.545441 132.609512,164.681778 133.992249,162.749359 
	C134.434235,162.992081 134.876205,163.234787 135.318192,163.477493 
	C135.225540,164.695740 135.132889,165.913971 135.022095,167.472290 
z"/>
<path fill="#DFF0F7" opacity="1.000000" stroke="none" 
	d="
M99.046310,173.717667 
	C100.271347,169.956528 101.860565,166.193222 103.713585,162.194672 
	C104.779060,166.780914 103.805359,170.912735 99.046310,173.717667 
z"/>
<path fill="#D9EDF7" opacity="1.000000" stroke="none" 
	d="
M183.052856,58.870869 
	C183.772186,57.864025 184.875626,56.881226 186.158264,55.635250 
	C187.036392,54.970093 187.735352,54.568111 188.731979,54.105659 
	C187.165451,55.661766 185.301224,57.278339 183.052856,58.870869 
z"/>
<path fill="#DFF1F8" opacity="1.000000" stroke="none" 
	d="
M86.039864,196.691833 
	C86.161362,195.754028 86.641571,194.807861 87.200684,193.550430 
	C88.001015,192.249329 88.722443,191.259506 89.698769,190.094849 
	C88.768639,192.174500 87.583611,194.428986 86.039864,196.691833 
z"/>
<path fill="#D9EDF7" opacity="1.000000" stroke="none" 
	d="
M174.492233,65.044502 
	C175.828552,63.695713 177.537079,62.351746 179.570190,60.931644 
	C178.218018,62.253448 176.541229,63.651390 174.492233,65.044502 
z"/>
<path fill="#D9EDF7" opacity="1.000000" stroke="none" 
	d="
M189.430359,54.037243 
	C190.482147,52.755119 191.917664,51.479897 193.648804,50.072845 
	C194.100662,52.851902 192.542908,54.037460 189.430359,54.037243 
z"/>
<path fill="#DFF1F8" opacity="1.000000" stroke="none" 
	d="
M107.794670,191.111771 
	C107.347748,191.773438 106.548569,192.421219 105.435440,193.114746 
	C105.895119,192.472931 106.668770,191.785416 107.794670,191.111771 
z"/>
<path fill="#D9EDF7" opacity="1.000000" stroke="none" 
	d="
M180.039200,59.385124 
	C180.519470,59.087227 180.955276,59.089851 181.717453,59.123417 
	C181.517914,59.717091 180.992004,60.279823 180.158112,60.867321 
	C179.898331,60.489937 179.946533,60.087791 180.039200,59.385124 
z"/>
<path fill="#DFF1F8" opacity="1.000000" stroke="none" 
	d="
M91.730286,201.037445 
	C92.026833,201.014313 91.912170,201.396133 91.842918,201.583038 
	C91.390533,201.859329 91.007393,201.948715 90.328949,202.061157 
	C90.500343,201.743011 90.967049,201.401794 91.730286,201.037445 
z"/>
<path fill="#DFF0F7" opacity="1.000000" stroke="none" 
	d="
M98.223190,174.835388 
	C98.113037,174.672653 98.188835,174.332169 98.487183,173.841827 
	C98.609528,174.013855 98.509338,174.335754 98.223190,174.835388 
z"/>
<path fill="#DFF1F8" opacity="1.000000" stroke="none" 
	d="
M95.101089,199.191650 
	C95.096687,199.385437 94.824997,199.637711 94.265686,199.902649 
	C94.263313,199.693588 94.548561,199.471863 95.101089,199.191650 
z"/>
<path fill="#DFF1F8" opacity="1.000000" stroke="none" 
	d="
M92.878967,200.530884 
	C92.882088,200.716858 92.734077,200.841324 92.297371,200.994507 
	C92.124710,200.676880 92.364426,200.492264 92.878967,200.530884 
z"/>
<path fill="#F8FBF5" opacity="1.000000" stroke="none" 
	d="
M138.493652,163.549194 
	C138.359589,163.411636 138.236130,163.232971 138.112671,163.054321 
	C138.206741,163.104263 138.300797,163.154221 138.490692,163.345764 
	C138.586517,163.487366 138.504242,163.508102 138.493652,163.549194 
z"/>
<path fill="#DFF0F7" opacity="1.000000" stroke="none" 
	d="
M104.391411,160.849533 
	C104.268806,160.695969 104.308487,160.373520 104.562515,159.920837 
	C104.820549,160.116882 104.746162,160.413574 104.391411,160.849533 
z"/>
<path fill="#FCFAF6" opacity="1.000000" stroke="none" 
	d="
M138.446289,25.111046 
	C139.492233,27.223083 140.180817,29.252258 140.943726,31.632566 
	C138.620804,31.342098 136.223557,30.700497 133.484802,30.030937 
	C133.106873,28.293139 133.070435,26.583296 133.035019,24.447115 
	C134.720337,24.356575 136.404648,24.692377 138.446289,25.111046 
z"/>
<path fill="#074B8E" opacity="1.000000" stroke="none" 
	d="
M149.248642,76.643723 
	C148.969772,73.122124 149.728287,72.500099 155.873581,70.835426 
	C156.316681,74.940544 156.316681,74.940544 149.248642,76.643723 
z"/>
<path fill="#2A577F" opacity="1.000000" stroke="none" 
	d="
M200.472214,44.543243 
	C200.442688,44.490826 200.501740,44.595665 200.472214,44.543243 
z"/>
<path fill="#FAFDFD" opacity="1.000000" stroke="none" 
	d="
M29.548651,121.135651 
	C29.338579,122.051468 28.672306,122.907692 28.137415,123.595078 
	C29.736767,125.563660 31.313934,127.504936 32.956474,129.790939 
	C27.757069,127.996513 22.492289,125.857361 16.942974,123.497810 
	C18.867548,122.435936 21.017988,121.293724 23.304243,120.847702 
	C25.148600,120.487885 27.156887,120.968369 29.548651,121.135651 
z"/>
<path fill="#FAFDFD" opacity="1.000000" stroke="none" 
	d="
M132.275497,170.979919 
	C132.155243,170.794891 132.310898,170.551758 132.655579,170.178986 
	C132.714172,170.319229 132.616455,170.610077 132.275497,170.979919 
z"/>
</svg>