<svg version="1.1" id="Layer_1" xmlns="http://www.w3.org/2000/svg" xmlns:xlink="http://www.w3.org/1999/xlink" x="0px" y="0px"
	 width="100%" viewBox="0 0 571 571" enable-background="new 0 0 571 571" xml:space="preserve">
<path fill="#000000" opacity="1.000000" stroke="none" 
	d="
M364.000000,572.000000 
	C242.666672,572.000000 121.833336,572.000000 1.000000,572.000000 
	C1.000000,381.666656 1.000000,191.333328 1.000000,1.000000 
	C191.333328,1.000000 381.666656,1.000000 572.000000,1.000000 
	C572.000000,191.333328 572.000000,381.666656 572.000000,572.000000 
	C502.833344,572.000000 433.666656,572.000000 364.000000,572.000000 
M305.636780,423.878601 
	C306.114075,423.839386 306.591400,423.800171 307.911987,423.909790 
	C315.687439,424.073853 315.930389,423.842529 315.939728,416.337616 
	C315.944458,412.516296 315.744751,408.676758 316.067871,404.882111 
	C316.209747,403.215820 317.460022,400.245605 318.148987,400.262299 
	C321.411865,400.341370 325.944763,400.126129 327.645996,402.083527 
	C331.642487,406.681946 334.043091,412.626251 337.573029,417.688782 
	C339.299072,420.164307 341.816376,422.989899 344.490051,423.688873 
	C348.377197,424.705017 352.741943,424.142456 356.879669,423.881927 
	C361.013672,423.621613 362.657806,420.167755 360.345642,416.864716 
	C356.880432,411.914642 353.060852,407.197723 349.842041,402.097626 
	C348.615753,400.154633 348.633026,397.426758 348.721436,394.772003 
	C350.847412,393.085327 353.115936,391.548401 355.073303,389.684662 
	C361.604797,383.465637 361.572968,375.314392 360.893219,367.299347 
	C360.271332,359.966370 352.429901,349.309204 343.510712,348.205322 
	C329.852478,347.818390 316.195526,347.374329 302.535461,347.069702 
	C296.151611,346.927338 294.926849,348.753021 296.669617,355.150085 
	C296.926392,356.092468 297.021332,357.078918 297.053741,358.966766 
	C297.049652,378.230438 297.045349,397.494141 297.041565,416.757812 
	C297.040100,424.297882 297.040619,424.297882 305.636780,423.878601 
M410.201294,379.061554 
	C404.760956,380.458771 407.306183,384.884979 407.117004,387.972748 
	C406.727478,394.331512 407.793884,395.131378 414.878510,394.936554 
	C416.711121,394.947235 418.563110,394.803772 420.368469,395.030945 
	C421.331940,395.152222 422.620514,395.675842 423.061584,396.428528 
	C424.685120,399.199066 422.495697,404.202545 419.386780,405.246948 
	C417.686127,405.818298 416.008057,406.568848 414.256927,406.858643 
	C406.887970,408.078094 394.364563,406.195984 390.997314,395.758423 
	C389.567780,391.327240 389.000122,386.618042 388.493866,381.853912 
	C388.824341,381.647644 388.919128,381.362946 389.145905,380.351715 
	C389.398804,379.766296 389.689117,379.194000 389.899109,378.593567 
	C394.375641,365.793488 405.805481,360.692566 418.113342,366.006409 
	C420.051483,366.843170 421.930725,367.929596 423.953522,368.432281 
	C427.606934,369.340179 431.589233,370.553375 433.772278,365.021912 
	C435.109161,363.238464 436.991150,361.622711 437.607819,359.617737 
	C438.087738,358.057343 437.585022,355.410248 436.469604,354.310883 
	C434.305603,352.177979 431.615601,350.170105 428.771973,349.203247 
	C412.944519,343.821686 390.744812,343.014679 377.256561,360.197388 
	C371.236938,367.865784 368.134735,376.805176 368.420380,385.939850 
	C368.722198,395.592194 371.126434,405.169098 378.764618,412.795624 
	C385.404053,419.424957 392.744690,423.635193 402.884979,424.924591 
	C414.110291,425.697662 425.015167,424.769226 434.819214,418.543030 
	C438.234528,416.374084 442.070679,414.487732 442.179474,409.492493 
	C442.345612,401.865265 442.868195,394.239716 442.821503,386.616028 
	C442.790222,381.502502 440.571960,379.718170 434.120514,379.046722 
	C426.411743,379.090424 418.703003,379.134155 410.201294,379.061554 
M269.711884,354.356537 
	C269.002869,353.659332 268.372192,352.852539 267.572998,352.281525 
	C257.591492,345.149780 246.292160,345.260803 234.893677,346.729584 
	C232.139450,347.084473 229.569672,348.870911 226.306976,350.218414 
	C225.213211,350.862823 224.119431,351.507233 222.287491,352.039337 
	C213.139755,355.298279 208.235489,362.793335 205.288177,371.148315 
	C203.322220,376.721436 203.310806,383.111969 203.124741,389.158173 
	C202.750900,401.306610 209.145386,410.917938 218.330811,417.127319 
	C234.183228,427.843597 251.269821,428.575439 268.615723,417.654266 
	C275.739197,411.853516 281.096649,404.718933 283.749146,395.913544 
	C287.415894,383.740875 283.892700,372.533356 277.721191,362.127747 
	C276.146729,359.473053 272.653198,357.956604 270.009430,355.987762 
	C270.009430,355.987762 270.080139,355.956055 269.989624,355.480408 
	C269.989624,355.480408 269.815247,355.028778 269.711884,354.356537 
M186.321793,406.679718 
	C187.922104,406.233002 190.027161,406.263275 191.005081,405.228394 
	C192.492676,403.654236 193.097397,401.280640 194.256470,399.354523 
	C197.541885,393.894867 196.398026,391.664459 189.349197,391.016479 
	C188.933609,391.007019 188.518036,390.997589 187.934662,390.250458 
	C185.817520,388.530090 183.700363,386.809723 181.098022,384.695099 
	C184.845734,382.930725 188.362213,381.329987 191.827744,379.625641 
	C194.395554,378.362793 197.106247,376.922882 195.811096,373.365753 
	C194.708191,370.336578 193.307297,367.383026 191.731110,364.567963 
	C190.046951,361.560089 187.531998,361.282837 184.580933,362.992096 
	C180.695511,365.242645 176.722977,367.342834 171.508698,370.211426 
	C172.130157,366.748108 172.741455,365.014282 172.687531,363.301361 
	C172.566971,359.472198 175.151413,354.409943 169.734299,352.558167 
	C166.828583,351.564850 163.206757,352.151489 160.013336,352.671539 
	C157.271774,353.117981 155.590271,354.875732 155.963501,358.251495 
	C156.341751,361.672729 156.046951,365.168365 156.046951,369.130005 
	C154.412964,368.726593 153.205841,368.428558 151.362549,367.826416 
	C150.588501,367.221771 149.882263,366.491364 149.029984,366.031769 
	C139.522064,360.904358 138.628754,358.334869 134.255585,371.273743 
	C132.507050,376.447174 133.205505,378.028900 138.376328,380.075653 
	C141.422028,381.281219 144.272812,382.979218 147.610458,384.656372 
	C133.158325,393.747955 133.158325,393.747955 136.004822,402.789520 
	C136.822067,405.619354 138.718704,407.809875 141.590256,406.699432 
	C145.263779,405.278870 148.543533,402.840057 152.788803,400.950226 
	C153.679916,400.666809 154.571030,400.383423 156.123856,399.889587 
	C156.123856,402.718170 156.383911,405.173096 156.078720,407.555603 
	C154.774399,417.737732 160.217194,417.985474 168.774551,417.490906 
	C171.706818,417.321411 173.158386,415.502228 172.545090,412.006256 
	C171.877274,408.199524 172.086090,404.238983 171.896637,399.984375 
	C176.984207,402.181976 181.459274,404.114990 186.321793,406.679718 
M316.333527,251.096466 
	C315.911774,251.162323 315.489990,251.228195 314.145538,251.127243 
	C310.088470,251.169556 306.031372,251.211884 301.336975,251.087219 
	C300.905212,251.143829 300.473419,251.200455 299.140167,251.081528 
	C296.314606,251.051056 293.424164,251.384125 290.680481,250.894730 
	C287.512299,250.329620 286.105560,251.181274 286.122589,254.393524 
	C286.146240,258.861053 286.128540,263.328796 286.128540,268.400757 
	C293.859131,268.400757 301.301453,268.400757 309.351624,268.400757 
	C309.351624,288.407959 309.351624,308.437897 309.351624,328.499207 
	C312.566010,328.692535 315.186432,328.918427 317.811279,328.996155 
	C328.954254,329.326141 328.954742,329.310089 328.958099,317.050629 
	C328.881989,310.389465 328.805878,303.728302 328.836456,296.126526 
	C328.836456,287.184937 328.836456,278.243317 328.836456,267.996582 
	C335.114441,267.996582 340.808258,267.990082 346.502075,267.999298 
	C349.385681,268.003998 351.760925,268.167816 350.187531,263.716980 
	C349.248840,261.061676 349.435425,257.613464 350.232910,254.843170 
	C351.154541,251.641617 350.082977,250.994553 347.431274,251.008530 
	C337.277527,251.062042 327.123932,251.143066 316.333527,251.096466 
M297.374939,222.653046 
	C298.810516,223.411484 300.231445,224.791962 301.684082,224.826187 
	C310.337921,225.030151 319.000366,225.015289 327.657440,224.894577 
	C336.292938,224.774155 344.272705,223.407593 351.921387,218.207687 
	C362.841339,210.783829 368.324768,200.938873 368.823364,188.259857 
	C369.148163,180.001175 367.453522,172.360535 362.260498,165.033020 
	C356.821075,157.357925 350.009003,152.648087 341.565216,150.016983 
	C327.851440,145.743729 313.656586,148.925842 299.697327,148.198486 
	C299.069427,148.165741 297.746552,150.147522 297.743591,151.193802 
	C297.713409,161.856918 298.017120,172.521286 297.961121,183.183914 
	C297.927643,189.553818 297.211273,195.920380 297.185303,202.290024 
	C297.158630,208.835144 297.598419,215.382187 297.374939,222.653046 
M207.130142,183.766937 
	C208.023163,189.308136 208.060471,195.180389 210.041321,200.300766 
	C212.174194,205.814087 215.339371,211.402786 219.458542,215.570587 
	C227.176331,223.379471 237.186981,225.675064 248.245483,226.152008 
	C265.697357,226.904724 285.737976,213.557480 288.233734,193.200958 
	C289.751251,180.823471 287.392090,169.986343 279.824646,160.743408 
	C269.997681,148.740616 256.215851,145.254654 241.422424,147.354141 
	C235.152481,148.243973 228.478424,150.778900 223.384308,154.485229 
	C214.031876,161.289764 208.643707,171.170044 207.130142,183.766937 
M410.500122,148.041382 
	C400.598633,147.797821 390.697296,147.454071 380.795441,147.438416 
	C379.567352,147.436462 377.507019,148.999115 377.260193,150.144470 
	C376.475464,153.785995 375.922882,157.592010 376.081909,161.300095 
	C376.489197,170.795975 377.442291,180.267532 377.927673,189.761566 
	C378.075562,192.653656 376.968628,195.623856 377.205658,198.494766 
	C377.828674,206.040497 376.041748,213.492294 377.491669,221.231644 
	C378.193207,224.976349 379.025024,224.915512 381.489258,224.918549 
	C398.140442,224.939148 414.791626,224.942230 431.442810,224.933777 
	C432.880188,224.933044 434.317505,224.807922 435.983948,224.729843 
	C435.983948,219.753189 436.162476,215.101715 435.840637,210.485153 
	C435.772308,209.505417 433.890503,207.877075 432.823944,207.860580 
	C420.717865,207.673523 408.607788,207.741867 396.917938,207.741867 
	C396.211212,203.373489 395.487152,198.898071 394.830261,194.837708 
	C398.324677,194.500870 400.992157,193.975906 403.645721,194.038544 
	C411.390930,194.221390 419.132050,194.608276 426.871674,194.980240 
	C429.762207,195.119156 432.014221,194.179016 431.893799,191.048645 
	C431.731934,186.840897 431.002533,182.654953 430.448608,177.871460 
	C419.288391,177.871460 407.842316,177.871460 397.049225,177.871460 
	C396.548126,173.377487 396.093781,169.302689 395.726318,166.007202 
	C402.354248,166.007202 409.169708,166.065857 415.983643,165.989059 
	C421.667969,165.925003 427.376129,165.952881 433.016052,165.376099 
	C434.453918,165.229050 436.786926,162.944000 436.789886,161.636917 
	C436.800018,157.161301 435.956970,152.683762 435.423218,148.067917 
	C427.444122,148.067917 419.471985,148.067917 410.500122,148.041382 
M381.738342,249.801514 
	C376.630951,249.801514 371.523590,249.801514 366.242065,249.801514 
	C366.242065,275.530609 366.242065,300.600372 366.242065,326.171204 
	C370.829529,326.399170 375.217133,326.614410 379.604340,326.836090 
	C382.894775,327.002350 384.159546,325.594025 384.072998,322.176819 
	C383.863953,313.920654 384.005188,305.655640 384.005188,297.497620 
	C393.440826,297.497620 402.544617,297.497620 411.830505,297.497620 
	C411.830505,307.193542 411.830505,317.034637 411.830505,327.235168 
	C418.536285,324.363495 425.160919,330.181335 430.617401,325.523224 
	C430.617401,300.170929 430.617401,275.116577 430.617401,250.220459 
	C424.314240,250.220459 418.365143,250.220459 412.033234,250.220459 
	C412.033234,259.835358 412.033234,269.245605 412.033234,279.197449 
	C402.482239,279.197449 393.328735,279.197449 384.003174,279.197449 
	C384.003174,270.248871 384.089630,262.098175 383.929260,253.952347 
	C383.897705,252.350021 382.913177,250.766449 381.738342,249.801514 
M234.044128,257.483032 
	C231.016525,264.468384 227.975464,271.447968 224.964569,278.440521 
	C220.864838,287.961823 216.804855,297.500305 212.694962,307.017212 
	C210.418472,312.288635 208.013550,317.505157 205.781097,322.794769 
	C204.008850,326.994019 205.305573,328.933746 209.710236,328.927124 
	C213.177948,328.921906 216.680359,329.166779 220.097382,328.740082 
	C221.608383,328.551422 223.572556,327.297302 224.250412,325.973480 
	C226.704895,321.180023 228.701080,316.151917 230.863159,311.228455 
	C233.652435,311.228455 236.624588,311.141815 239.589767,311.248779 
	C244.029236,311.408905 248.664841,312.620056 252.847122,311.700958 
	C257.574707,310.662018 259.571136,310.783569 261.715973,315.919922 
	C267.240570,329.150177 267.672455,328.969849 279.764404,328.767853 
	C286.393463,328.657135 287.330139,327.422821 284.758911,321.426331 
	C279.380371,308.882782 273.758270,296.443420 268.407257,283.888367 
	C264.347504,274.363068 260.627258,264.693359 256.600250,255.153610 
	C255.117874,251.641907 253.073898,249.027222 248.295822,249.931625 
	C244.766510,250.599655 241.009125,250.062881 237.546173,250.062881 
	C236.312744,252.394684 235.176926,254.541916 234.044128,257.483032 
M203.876175,283.920471 
	C203.655960,278.854370 204.432983,273.491211 203.028854,268.777771 
	C198.787277,254.539337 186.005096,249.688049 173.956940,249.149353 
	C166.601639,248.820465 159.195877,249.842010 151.807800,249.970154 
	C142.089066,250.138748 142.084457,250.017487 142.088715,259.722443 
	C142.097824,280.520020 142.062866,301.317932 142.212799,322.114502 
	C142.224365,323.717377 143.453949,326.638794 144.273239,326.695465 
	C150.067230,327.096375 155.901947,326.908630 161.773254,326.908630 
	C161.773254,318.793701 161.773254,311.927460 161.773254,304.974976 
	C166.549774,304.974976 170.536179,305.100342 174.512405,304.952393 
	C188.479080,304.432556 197.964020,298.260498 203.876175,283.920471 
M183.130722,225.926804 
	C191.193802,224.827576 198.306320,221.772812 203.820618,215.612747 
	C205.947144,213.237152 207.178711,210.902863 203.772415,208.209457 
	C201.213638,206.186203 199.339203,203.314026 196.868790,201.152740 
	C196.093994,200.474869 193.479462,200.390686 193.221512,200.862595 
	C190.357254,206.102554 184.803238,206.945663 180.092941,208.554703 
	C173.136520,210.931015 166.743301,207.373199 161.895981,203.129807 
	C155.568909,197.591049 155.109024,189.317017 156.052155,181.386230 
	C156.741669,175.588135 160.022903,170.818970 165.107239,168.066391 
	C175.122833,162.644180 184.267197,165.009125 192.737045,172.030792 
	C193.479782,172.646545 196.157639,172.052109 197.049728,171.146286 
	C199.422241,168.737228 200.792419,165.012741 203.504074,163.338257 
	C208.292053,160.381577 204.564880,158.358521 203.449799,156.028366 
	C203.165649,155.434586 202.065216,155.279541 201.440796,154.793289 
	C192.521347,147.847321 182.141022,146.373688 171.343887,147.195908 
	C167.269394,147.506180 162.848312,148.246262 159.370026,150.192795 
	C154.603714,152.860077 150.091309,156.407562 146.384995,160.422424 
	C142.685181,164.430237 139.052536,169.103119 137.262192,174.148605 
	C133.183441,185.643127 134.375046,197.105728 141.027359,207.595703 
	C145.813400,215.142776 151.478760,222.097687 160.801437,223.837936 
	C167.819321,225.147980 175.059265,225.268356 183.130722,225.926804 
z"/>
<path fill="#F9FAFA" opacity="1.000000" stroke="none" 
	d="
M297.604492,222.290710 
	C297.598419,215.382187 297.158630,208.835144 297.185303,202.290024 
	C297.211273,195.920380 297.927643,189.553818 297.961121,183.183914 
	C298.017120,172.521286 297.713409,161.856918 297.743591,151.193802 
	C297.746552,150.147522 299.069427,148.165741 299.697327,148.198486 
	C313.656586,148.925842 327.851440,145.743729 341.565216,150.016983 
	C350.009003,152.648087 356.821075,157.357925 362.260498,165.033020 
	C367.453522,172.360535 369.148163,180.001175 368.823364,188.259857 
	C368.324768,200.938873 362.841339,210.783829 351.921387,218.207687 
	C344.272705,223.407593 336.292938,224.774155 327.657440,224.894577 
	C319.000366,225.015289 310.337921,225.030151 301.684082,224.826187 
	C300.231445,224.791962 298.810516,223.411484 297.604492,222.290710 
M336.802185,167.192230 
	C330.334045,166.632385 323.865875,166.072556 317.110443,165.487854 
	C317.110443,179.779846 317.110443,193.159485 317.110443,206.991470 
	C321.430511,206.991470 325.684906,207.378601 329.840393,206.902573 
	C336.408478,206.150208 342.832733,204.304016 345.965851,197.728729 
	C350.814728,187.552521 349.968231,173.922623 336.802185,167.192230 
z"/>
<path fill="#F9FAFA" opacity="1.000000" stroke="none" 
	d="
M207.099289,183.309875 
	C208.643707,171.170044 214.031876,161.289764 223.384308,154.485229 
	C228.478424,150.778900 235.152481,148.243973 241.422424,147.354141 
	C256.215851,145.254654 269.997681,148.740616 279.824646,160.743408 
	C287.392090,169.986343 289.751251,180.823471 288.233734,193.200958 
	C285.737976,213.557480 265.697357,226.904724 248.245483,226.152008 
	C237.186981,225.675064 227.176331,223.379471 219.458542,215.570587 
	C215.339371,211.402786 212.174194,205.814087 210.041321,200.300766 
	C208.060471,195.180389 208.023163,189.308136 207.099289,183.309875 
M248.434540,209.091385 
	C253.902756,206.579315 261.299438,205.500900 264.448639,201.264801 
	C271.603119,191.641129 271.062744,176.557159 260.290710,168.809341 
	C251.581772,162.545441 241.451660,164.054810 234.515991,169.262772 
	C227.886063,174.241150 225.779694,189.758224 229.807922,197.396561 
	C233.619492,204.624130 240.221130,207.389877 248.434540,209.091385 
z"/>
<path fill="#FAFCFC" opacity="1.000000" stroke="none" 
	d="
M411.000000,148.054657 
	C419.471985,148.067917 427.444122,148.067917 435.423218,148.067917 
	C435.956970,152.683762 436.800018,157.161301 436.789886,161.636917 
	C436.786926,162.944000 434.453918,165.229050 433.016052,165.376099 
	C427.376129,165.952881 421.667969,165.925003 415.983643,165.989059 
	C409.169708,166.065857 402.354248,166.007202 395.726318,166.007202 
	C396.093781,169.302689 396.548126,173.377487 397.049225,177.871460 
	C407.842316,177.871460 419.288391,177.871460 430.448608,177.871460 
	C431.002533,182.654953 431.731934,186.840897 431.893799,191.048645 
	C432.014221,194.179016 429.762207,195.119156 426.871674,194.980240 
	C419.132050,194.608276 411.390930,194.221390 403.645721,194.038544 
	C400.992157,193.975906 398.324677,194.500870 394.830261,194.837708 
	C395.487152,198.898071 396.211212,203.373489 396.917938,207.741867 
	C408.607788,207.741867 420.717865,207.673523 432.823944,207.860580 
	C433.890503,207.877075 435.772308,209.505417 435.840637,210.485153 
	C436.162476,215.101715 435.983948,219.753189 435.983948,224.729843 
	C434.317505,224.807922 432.880188,224.933044 431.442810,224.933777 
	C414.791626,224.942230 398.140442,224.939148 381.489258,224.918549 
	C379.025024,224.915512 378.193207,224.976349 377.491669,221.231644 
	C376.041748,213.492294 377.828674,206.040497 377.205658,198.494766 
	C376.968628,195.623856 378.075562,192.653656 377.927673,189.761566 
	C377.442291,180.267532 376.489197,170.795975 376.081909,161.300095 
	C375.922882,157.592010 376.475464,153.785995 377.260193,150.144470 
	C377.507019,148.999115 379.567352,147.436462 380.795441,147.438416 
	C390.697296,147.454071 400.598633,147.797821 411.000000,148.054657 
z"/>
<path fill="#F9FCFB" opacity="1.000000" stroke="none" 
	d="
M382.053253,249.487885 
	C382.913177,250.766449 383.897705,252.350021 383.929260,253.952347 
	C384.089630,262.098175 384.003174,270.248871 384.003174,279.197449 
	C393.328735,279.197449 402.482239,279.197449 412.033234,279.197449 
	C412.033234,269.245605 412.033234,259.835358 412.033234,250.220459 
	C418.365143,250.220459 424.314240,250.220459 430.617401,250.220459 
	C430.617401,275.116577 430.617401,300.170929 430.617401,325.523224 
	C425.160919,330.181335 418.536285,324.363495 411.830505,327.235168 
	C411.830505,317.034637 411.830505,307.193542 411.830505,297.497620 
	C402.544617,297.497620 393.440826,297.497620 384.005188,297.497620 
	C384.005188,305.655640 383.863953,313.920654 384.072998,322.176819 
	C384.159546,325.594025 382.894775,327.002350 379.604340,326.836090 
	C375.217133,326.614410 370.829529,326.399170 366.242065,326.171204 
	C366.242065,300.600372 366.242065,275.530609 366.242065,249.801514 
	C371.523590,249.801514 376.630951,249.801514 382.053253,249.487885 
z"/>
<path fill="#F7F8F8" opacity="1.000000" stroke="none" 
	d="
M234.042633,257.086090 
	C235.176926,254.541916 236.312744,252.394684 237.546173,250.062881 
	C241.009125,250.062881 244.766510,250.599655 248.295822,249.931625 
	C253.073898,249.027222 255.117874,251.641907 256.600250,255.153610 
	C260.627258,264.693359 264.347504,274.363068 268.407257,283.888367 
	C273.758270,296.443420 279.380371,308.882782 284.758911,321.426331 
	C287.330139,327.422821 286.393463,328.657135 279.764404,328.767853 
	C267.672455,328.969849 267.240570,329.150177 261.715973,315.919922 
	C259.571136,310.783569 257.574707,310.662018 252.847122,311.700958 
	C248.664841,312.620056 244.029236,311.408905 239.589767,311.248779 
	C236.624588,311.141815 233.652435,311.228455 230.863159,311.228455 
	C228.701080,316.151917 226.704895,321.180023 224.250412,325.973480 
	C223.572556,327.297302 221.608383,328.551422 220.097382,328.740082 
	C216.680359,329.166779 213.177948,328.921906 209.710236,328.927124 
	C205.305573,328.933746 204.008850,326.994019 205.781097,322.794769 
	C208.013550,317.505157 210.418472,312.288635 212.694962,307.017212 
	C216.804855,297.500305 220.864838,287.961823 224.964569,278.440521 
	C227.975464,271.447968 231.016525,264.468384 234.042633,257.086090 
M237.955505,292.863739 
	C242.937424,295.241669 247.795212,294.021149 252.453735,292.884613 
	C250.530411,287.210327 248.775269,281.946747 246.914703,276.720703 
	C246.779739,276.341644 245.769608,275.930023 245.359970,276.076172 
	C244.791870,276.278809 244.222046,276.917297 243.973282,277.504791 
	C241.933716,282.321320 239.968567,287.169403 237.955505,292.863739 
z"/>
<path fill="#F9FAFA" opacity="1.000000" stroke="none" 
	d="
M203.827332,284.354431 
	C197.964020,298.260498 188.479080,304.432556 174.512405,304.952393 
	C170.536179,305.100342 166.549774,304.974976 161.773254,304.974976 
	C161.773254,311.927460 161.773254,318.793701 161.773254,326.908630 
	C155.901947,326.908630 150.067230,327.096375 144.273239,326.695465 
	C143.453949,326.638794 142.224365,323.717377 142.212799,322.114502 
	C142.062866,301.317932 142.097824,280.520020 142.088715,259.722443 
	C142.084457,250.017487 142.089066,250.138748 151.807800,249.970154 
	C159.195877,249.842010 166.601639,248.820465 173.956940,249.149353 
	C186.005096,249.688049 198.787277,254.539337 203.028854,268.777771 
	C204.432983,273.491211 203.655960,278.854370 203.827332,284.354431 
M166.623184,287.066010 
	C169.618393,287.057953 172.621567,287.185181 175.606934,287.009705 
	C179.933762,286.755371 184.514084,282.398468 185.021515,278.290680 
	C185.494583,274.460907 182.389633,268.881134 178.706207,268.256653 
	C173.302094,267.340424 167.774582,267.151886 162.121399,266.637085 
	C161.706055,272.216156 161.093353,276.935883 161.105438,281.653961 
	C161.112244,284.310852 161.131989,287.840729 166.623184,287.066010 
z"/>
<path fill="#F9FAFB" opacity="1.000000" stroke="none" 
	d="
M182.665543,225.922546 
	C175.059265,225.268356 167.819321,225.147980 160.801437,223.837936 
	C151.478760,222.097687 145.813400,215.142776 141.027359,207.595703 
	C134.375046,197.105728 133.183441,185.643127 137.262192,174.148605 
	C139.052536,169.103119 142.685181,164.430237 146.384995,160.422424 
	C150.091309,156.407562 154.603714,152.860077 159.370026,150.192795 
	C162.848312,148.246262 167.269394,147.506180 171.343887,147.195908 
	C182.141022,146.373688 192.521347,147.847321 201.440796,154.793289 
	C202.065216,155.279541 203.165649,155.434586 203.449799,156.028366 
	C204.564880,158.358521 208.292053,160.381577 203.504074,163.338257 
	C200.792419,165.012741 199.422241,168.737228 197.049728,171.146286 
	C196.157639,172.052109 193.479782,172.646545 192.737045,172.030792 
	C184.267197,165.009125 175.122833,162.644180 165.107239,168.066391 
	C160.022903,170.818970 156.741669,175.588135 156.052155,181.386230 
	C155.109024,189.317017 155.568909,197.591049 161.895981,203.129807 
	C166.743301,207.373199 173.136520,210.931015 180.092941,208.554703 
	C184.803238,206.945663 190.357254,206.102554 193.221512,200.862595 
	C193.479462,200.390686 196.093994,200.474869 196.868790,201.152740 
	C199.339203,203.314026 201.213638,206.186203 203.772415,208.209457 
	C207.178711,210.902863 205.947144,213.237152 203.820618,215.612747 
	C198.306320,221.772812 191.193802,224.827576 182.665543,225.922546 
z"/>
<path fill="#05C88D" opacity="1.000000" stroke="none" 
	d="
M223.025635,352.151611 
	C224.119431,351.507233 225.213211,350.862823 227.072449,350.122681 
	C231.949020,349.682220 236.061386,349.351715 240.170990,348.990021 
	C250.571915,348.074554 260.140869,350.546753 269.253540,356.021973 
	C269.713440,355.996216 269.896790,355.976135 270.080139,355.956055 
	C270.080139,355.956055 270.009430,355.987762 270.006897,356.326599 
	C272.058502,359.523468 274.412659,362.214417 276.113861,365.269012 
	C282.878876,377.416107 284.229462,389.936249 277.577301,402.588379 
	C275.987946,405.611267 273.600372,408.230377 271.464172,410.944092 
	C270.079376,412.703247 268.484680,414.297180 266.595947,415.971619 
	C265.237549,416.142059 264.095703,416.030396 263.322571,416.511383 
	C251.729675,423.723969 240.031250,423.682587 227.519135,418.497101 
	C215.971405,413.711273 209.676285,405.424408 206.903641,393.648682 
	C204.203156,382.179291 206.811264,371.975555 213.763336,362.782196 
	C216.591324,359.042480 219.923080,355.683716 223.025635,352.151611 
M254.324188,362.958618 
	C248.219925,359.678009 241.742538,360.471039 235.492874,361.904999 
	C232.441925,362.605072 229.063919,364.401581 227.071396,366.751190 
	C218.942017,376.337372 215.387894,393.762634 229.215256,404.804291 
	C242.061966,415.062866 257.731049,410.211609 264.503693,398.147797 
	C271.535187,385.622925 267.643341,370.703949 254.324188,362.958618 
z"/>
<path fill="#F8FAFA" opacity="1.000000" stroke="none" 
	d="
M328.819977,317.973999 
	C328.954742,329.310089 328.954254,329.326141 317.811279,328.996155 
	C315.186432,328.918427 312.566010,328.692535 309.351624,328.499207 
	C309.351624,308.437897 309.351624,288.407959 309.351624,268.400757 
	C301.301453,268.400757 293.859131,268.400757 286.128540,268.400757 
	C286.128540,263.328796 286.146240,258.861053 286.122589,254.393524 
	C286.105560,251.181274 287.512299,250.329620 290.680481,250.894730 
	C293.424164,251.384125 296.314606,251.051056 299.746033,251.349503 
	C300.892731,251.496384 301.433502,251.375290 301.974304,251.254196 
	C306.031372,251.211884 310.088470,251.169556 314.763550,251.386429 
	C315.911163,251.501678 316.440704,251.357758 316.970276,251.213837 
	C327.123932,251.143066 337.277527,251.062042 347.431274,251.008530 
	C350.082977,250.994553 351.154541,251.641617 350.232910,254.843170 
	C349.435425,257.613464 349.248840,261.061676 350.187531,263.716980 
	C351.760925,268.167816 349.385681,268.003998 346.502075,267.999298 
	C340.808258,267.990082 335.114441,267.996582 328.836456,267.996582 
	C328.836456,278.243317 328.836456,287.184937 328.547363,296.927673 
	C328.445496,304.477234 328.632751,311.225616 328.819977,317.973999 
z"/>
<path fill="#06C88D" opacity="1.000000" stroke="none" 
	d="
M188.102448,390.988129 
	C188.518036,390.997589 188.933609,391.007019 189.709030,391.436584 
	C192.855118,394.600098 194.190186,397.342834 190.402084,400.412903 
	C189.692978,400.987610 189.452271,402.140228 188.776581,403.126526 
	C188.285706,403.417694 188.091934,403.668915 187.649414,403.975464 
	C186.886566,403.962708 186.450729,403.955048 185.800262,403.680389 
	C181.918961,401.549866 178.280807,399.627289 174.577484,397.839752 
	C171.001343,396.113617 169.192200,397.140808 169.026123,401.030273 
	C168.892151,404.167572 168.923965,407.318634 169.039749,410.457764 
	C169.131241,412.938141 168.237732,413.953552 165.627731,414.070496 
	C159.801529,414.331482 158.948425,413.706177 159.013977,407.883759 
	C159.032364,406.250732 159.673798,404.565674 159.419617,403.003723 
	C159.106247,401.078003 158.155548,399.255981 157.480255,397.389160 
	C155.647461,398.233734 153.814667,399.078339 151.605042,399.947388 
	C149.411224,400.683228 147.368469,401.076569 145.824509,402.172577 
	C142.665100,404.415405 140.217850,403.960175 137.995239,400.601624 
	C136.916336,395.649445 139.408005,392.123322 145.135803,389.361572 
	C146.958893,388.482513 149.930008,386.110138 149.687531,385.513367 
	C148.788757,383.301331 147.058395,381.149811 145.099838,379.711945 
	C142.292084,377.650665 139.010269,376.235199 135.670456,374.400970 
	C137.504425,371.087830 138.905701,368.556305 140.168381,366.275208 
	C144.486221,367.641876 148.228561,368.826385 151.980560,370.009064 
	C151.990219,370.007233 151.998383,370.024963 152.106262,370.245270 
	C152.419800,370.739960 152.689758,370.915436 153.237656,371.017029 
	C153.451279,371.042023 153.880814,371.065491 153.947479,371.346802 
	C154.670151,371.741058 155.326126,371.853973 156.339722,371.913635 
	C157.456726,369.903015 158.216141,367.945648 159.140533,365.627777 
	C159.866684,362.159607 160.427872,359.051971 161.428864,355.954468 
	C169.031967,356.022156 169.032059,356.022156 169.023331,363.103912 
	C169.022720,363.601379 169.018997,364.098846 169.018005,364.596313 
	C169.002686,372.374573 170.672653,373.482330 177.660034,370.227814 
	C179.582657,369.332306 181.356949,368.105774 183.305832,367.283722 
	C184.549316,366.759216 186.756500,366.030426 187.206146,366.546967 
	C189.077454,368.696777 190.660477,371.189362 191.813019,373.793549 
	C192.036835,374.299225 190.036774,376.174561 188.764893,376.886230 
	C184.572510,379.232025 179.334488,380.130005 176.977020,386.673370 
	C180.697205,388.116180 184.399826,389.552155 188.102448,390.988129 
z"/>
<path fill="#2DB691" opacity="1.000000" stroke="none" 
	d="
M401.953766,424.769897 
	C392.744690,423.635193 385.404053,419.424957 378.764618,412.795624 
	C371.126434,405.169098 368.722198,395.592194 368.420380,385.939850 
	C368.134735,376.805176 371.236938,367.865784 377.256561,360.197388 
	C390.744812,343.014679 412.944519,343.821686 428.771973,349.203247 
	C431.615601,350.170105 434.305603,352.177979 436.469604,354.310883 
	C437.585022,355.410248 438.087738,358.057343 437.607819,359.617737 
	C436.991150,361.622711 435.109161,363.238464 433.391968,364.788452 
	C432.997620,364.355347 432.983582,364.155701 432.982117,363.580688 
	C435.173492,355.949310 434.832397,353.951111 427.186584,351.877228 
	C419.801453,349.874054 411.841156,348.919403 404.192627,349.188080 
	C389.402649,349.707550 376.150604,361.960571 372.324005,375.915955 
	C368.916138,388.344269 371.852448,399.898407 380.262207,409.761444 
	C382.545776,412.439575 385.332581,414.849457 388.296631,416.743744 
	C391.622711,418.869476 395.411469,420.271240 399.158813,422.235321 
	C400.197021,423.245087 401.075378,424.007477 401.953766,424.769897 
z"/>
<path fill="#28B590" opacity="1.000000" stroke="none" 
	d="
M222.656555,352.095459 
	C219.923080,355.683716 216.591324,359.042480 213.763336,362.782196 
	C206.811264,371.975555 204.203156,382.179291 206.903641,393.648682 
	C209.676285,405.424408 215.971405,413.711273 227.519135,418.497101 
	C240.031250,423.682587 251.729675,423.723969 263.322571,416.511383 
	C264.095703,416.030396 265.237549,416.142059 266.687103,416.205566 
	C267.423035,416.861298 267.679749,417.289520 267.936493,417.717773 
	C251.269821,428.575439 234.183228,427.843597 218.330811,417.127319 
	C209.145386,410.917938 202.750900,401.306610 203.124741,389.158173 
	C203.310806,383.111969 203.322220,376.721436 205.288177,371.148315 
	C208.235489,362.793335 213.139755,355.298279 222.656555,352.095459 
z"/>
<path fill="#29B38C" opacity="1.000000" stroke="none" 
	d="
M158.975555,365.988281 
	C158.216141,367.945648 157.456726,369.903015 156.159805,371.669373 
	C155.041794,371.340729 154.461304,371.203094 153.880814,371.065491 
	C153.880814,371.065491 153.451279,371.042023 153.122437,370.802063 
	C152.591278,370.290131 152.326202,370.111084 151.998383,370.024963 
	C151.998383,370.024963 151.990219,370.007233 151.992798,369.695709 
	C151.996506,368.966309 151.997620,368.548401 151.998734,368.130554 
	C153.205841,368.428558 154.412964,368.726593 156.046951,369.130005 
	C156.046951,365.168365 156.341751,361.672729 155.963501,358.251495 
	C155.590271,354.875732 157.271774,353.117981 160.013336,352.671539 
	C163.206757,352.151489 166.828583,351.564850 169.734299,352.558167 
	C175.151413,354.409943 172.566971,359.472198 172.687531,363.301361 
	C172.741455,365.014282 172.130157,366.748108 171.508698,370.211426 
	C176.722977,367.342834 180.695511,365.242645 184.580933,362.992096 
	C187.531998,361.282837 190.046951,361.560089 191.731110,364.567963 
	C193.307297,367.383026 194.708191,370.336578 195.811096,373.365753 
	C197.106247,376.922882 194.395554,378.362793 191.827744,379.625641 
	C188.362213,381.329987 184.845734,382.930725 181.098022,384.695099 
	C183.700363,386.809723 185.817520,388.530090 188.018555,390.619293 
	C184.399826,389.552155 180.697205,388.116180 176.977020,386.673370 
	C179.334488,380.130005 184.572510,379.232025 188.764893,376.886230 
	C190.036774,376.174561 192.036835,374.299225 191.813019,373.793549 
	C190.660477,371.189362 189.077454,368.696777 187.206146,366.546967 
	C186.756500,366.030426 184.549316,366.759216 183.305832,367.283722 
	C181.356949,368.105774 179.582657,369.332306 177.660034,370.227814 
	C170.672653,373.482330 169.002686,372.374573 169.018005,364.596313 
	C169.018997,364.098846 169.022720,363.601379 169.023331,363.103912 
	C169.032059,356.022156 169.031967,356.022156 161.374481,355.637573 
	C160.043716,355.669434 158.482849,356.030090 158.483704,356.386963 
	C158.491425,359.587769 158.773849,362.787933 158.975555,365.988281 
z"/>
<path fill="#29B38C" opacity="1.000000" stroke="none" 
	d="
M348.083588,395.056610 
	C348.633026,397.426758 348.615753,400.154633 349.842041,402.097626 
	C353.060852,407.197723 356.880432,411.914642 360.345642,416.864716 
	C362.657806,420.167755 361.013672,423.621613 356.879669,423.881927 
	C352.741943,424.142456 348.377197,424.705017 344.490051,423.688873 
	C341.816376,422.989899 339.299072,420.164307 337.573029,417.688782 
	C334.043091,412.626251 331.642487,406.681946 327.645996,402.083527 
	C325.944763,400.126129 321.411865,400.341370 318.148987,400.262299 
	C317.460022,400.245605 316.209747,403.215820 316.067871,404.882111 
	C315.744751,408.676758 315.944458,412.516296 315.939728,416.337616 
	C315.930389,423.842529 315.687439,424.073853 307.739044,423.616272 
	C308.711548,422.556824 309.856995,421.790924 311.389923,420.918640 
	C312.195038,416.870270 312.612640,412.928284 313.313599,408.698181 
	C313.731537,405.287872 313.866119,402.165680 314.113342,398.824188 
	C314.432526,398.331909 314.701111,398.151184 315.326904,398.341736 
	C319.420959,398.731659 323.219940,398.842651 327.391907,398.968506 
	C328.901917,399.790955 330.363647,400.370728 331.118561,401.446503 
	C334.043579,405.614532 336.696838,409.971832 339.537415,414.200806 
	C344.676178,421.851227 347.024445,422.663574 357.908020,419.926178 
	C354.837006,415.259827 351.847595,411.054718 349.227905,406.630646 
	C347.113403,403.059662 342.797363,400.172974 345.385620,394.999084 
	C346.542175,395.019287 347.312866,395.037964 348.083588,395.056610 
z"/>
<path fill="#26B48E" opacity="1.000000" stroke="none" 
	d="
M297.191162,358.044983 
	C297.021332,357.078918 296.926392,356.092468 296.669617,355.150085 
	C294.926849,348.753021 296.151611,346.927338 302.535461,347.069702 
	C316.195526,347.374329 329.852478,347.818390 343.860535,348.822205 
	C344.464020,349.959625 344.717743,350.480103 344.534912,350.998474 
	C331.810699,350.661346 319.524719,350.216797 307.234802,350.033386 
	C300.108978,349.927002 299.203064,351.128418 299.937347,358.023438 
	C300.060242,359.177399 299.975800,360.354126 299.975861,361.520355 
	C299.976959,381.014374 299.976257,400.508423 299.582581,419.906311 
	C298.793243,418.137177 298.061340,416.465851 298.053040,414.790955 
	C297.968109,397.636261 298.023987,380.480896 297.964874,363.326019 
	C297.958801,361.564789 297.460876,359.805298 297.191162,358.044983 
z"/>
<path fill="#28B590" opacity="1.000000" stroke="none" 
	d="
M402.419373,424.847229 
	C401.075378,424.007477 400.197021,423.245087 399.415894,421.982330 
	C411.920013,422.847229 424.193817,422.899170 434.522949,414.565399 
	C437.046356,412.529419 439.408173,408.852234 439.666504,405.748383 
	C440.211487,399.200836 439.135773,392.534607 439.091797,385.914673 
	C439.071075,382.800018 437.915375,381.668030 435.001587,381.573425 
	C435.002563,380.545380 435.003876,379.860077 435.005188,379.174744 
	C440.571960,379.718170 442.790222,381.502502 442.821503,386.616028 
	C442.868195,394.239716 442.345612,401.865265 442.179474,409.492493 
	C442.070679,414.487732 438.234528,416.374084 434.819214,418.543030 
	C425.015167,424.769226 414.110291,425.697662 402.419373,424.847229 
z"/>
<path fill="#26B48E" opacity="1.000000" stroke="none" 
	d="
M388.040710,382.035217 
	C389.000122,386.618042 389.567780,391.327240 390.997314,395.758423 
	C394.364563,406.195984 406.887970,408.078094 414.256927,406.858643 
	C416.008057,406.568848 417.686127,405.818298 419.386780,405.246948 
	C422.495697,404.202545 424.685120,399.199066 423.061584,396.428528 
	C422.620514,395.675842 421.331940,395.152222 420.368469,395.030945 
	C418.563110,394.803772 416.711121,394.947235 414.435852,394.523682 
	C413.988647,393.433533 413.984131,392.756287 414.367981,392.055054 
	C416.219879,392.263306 417.688049,392.714600 419.146088,392.684021 
	C422.609833,392.611328 425.856628,393.238129 426.864868,396.936127 
	C428.171570,401.728973 425.663910,407.621765 421.518097,408.424591 
	C415.677124,409.555634 410.363495,411.604462 403.486389,409.671326 
	C392.490601,406.580444 388.153290,399.659821 386.309570,389.904541 
	C385.835144,387.394409 387.258331,384.525574 387.867310,381.875183 
	C387.924835,381.928802 388.040710,382.035217 388.040710,382.035217 
z"/>
<path fill="#2DB691" opacity="1.000000" stroke="none" 
	d="
M151.680634,367.978455 
	C151.997620,368.548401 151.996506,368.966309 151.983154,369.697540 
	C148.228561,368.826385 144.486221,367.641876 140.168381,366.275208 
	C138.905701,368.556305 137.504425,371.087830 135.670456,374.400970 
	C139.010269,376.235199 142.292084,377.650665 145.099838,379.711945 
	C147.058395,381.149811 148.788757,383.301331 149.687531,385.513367 
	C149.930008,386.110138 146.958893,388.482513 145.135803,389.361572 
	C139.408005,392.123322 136.916336,395.649445 137.812378,400.855591 
	C137.050858,401.676117 136.465332,401.861420 135.879791,402.046722 
	C133.158325,393.747955 133.158325,393.747955 147.610458,384.656372 
	C144.272812,382.979218 141.422028,381.281219 138.376328,380.075653 
	C133.205505,378.028900 132.507050,376.447174 134.255585,371.273743 
	C138.628754,358.334869 139.522064,360.904358 149.029984,366.031769 
	C149.882263,366.491364 150.588501,367.221771 151.680634,367.978455 
z"/>
<path fill="#29B38C" opacity="1.000000" stroke="none" 
	d="
M151.981873,399.922974 
	C153.814667,399.078339 155.647461,398.233734 157.480255,397.389160 
	C158.155548,399.255981 159.106247,401.078003 159.419617,403.003723 
	C159.673798,404.565674 159.032364,406.250732 159.013977,407.883759 
	C158.948425,413.706177 159.801529,414.331482 165.627731,414.070496 
	C168.237732,413.953552 169.131241,412.938141 169.039749,410.457764 
	C168.923965,407.318634 168.892151,404.167572 169.026123,401.030273 
	C169.192200,397.140808 171.001343,396.113617 174.577484,397.839752 
	C178.280807,399.627289 181.918961,401.549866 185.792007,404.031616 
	C185.977066,405.115906 185.955704,405.581940 185.934357,406.047974 
	C181.459274,404.114990 176.984207,402.181976 171.896637,399.984375 
	C172.086090,404.238983 171.877274,408.199524 172.545090,412.006256 
	C173.158386,415.502228 171.706818,417.321411 168.774551,417.490906 
	C160.217194,417.985474 154.774399,417.737732 156.078720,407.555603 
	C156.383911,405.173096 156.123856,402.718170 156.123856,399.889587 
	C154.571030,400.383423 153.679916,400.666809 152.391205,400.665833 
	C151.993607,400.381470 151.981873,399.922974 151.981873,399.922974 
z"/>
<path fill="#2DB691" opacity="1.000000" stroke="none" 
	d="
M268.276123,417.686035 
	C267.679749,417.289520 267.423035,416.861298 267.075134,416.199097 
	C268.484680,414.297180 270.079376,412.703247 271.464172,410.944092 
	C273.600372,408.230377 275.987946,405.611267 277.577301,402.588379 
	C284.229462,389.936249 282.878876,377.416107 276.113861,365.269012 
	C274.412659,362.214417 272.058502,359.523468 270.022888,356.291290 
	C272.653198,357.956604 276.146729,359.473053 277.721191,362.127747 
	C283.892700,372.533356 287.415894,383.740875 283.749146,395.913544 
	C281.096649,404.718933 275.739197,411.853516 268.276123,417.686035 
z"/>
<path fill="#28B590" opacity="1.000000" stroke="none" 
	d="
M432.969513,363.956055 
	C432.983582,364.155701 432.997620,364.355347 433.036621,364.854126 
	C431.589233,370.553375 427.606934,369.340179 423.953522,368.432281 
	C421.930725,367.929596 420.051483,366.843170 418.113342,366.006409 
	C405.805481,360.692566 394.375641,365.793488 389.899109,378.593567 
	C389.689117,379.194000 389.398804,379.766296 388.753723,380.676208 
	C388.361511,381.000671 387.944305,381.003540 387.806122,380.654480 
	C387.500275,378.849884 386.861511,377.257538 387.238251,375.960083 
	C390.793884,363.714813 409.297302,356.576721 420.637848,363.257294 
	C424.862183,365.745758 428.631531,367.523193 432.969513,363.956055 
z"/>
<path fill="#33BC98" opacity="1.000000" stroke="none" 
	d="
M344.971466,351.000610 
	C344.717743,350.480103 344.464020,349.959625 344.118927,349.163940 
	C352.429901,349.309204 360.271332,359.966370 360.893219,367.299347 
	C361.572968,375.314392 361.604797,383.465637 355.073303,389.684662 
	C353.115936,391.548401 350.847412,393.085327 348.402527,394.914307 
	C347.312866,395.037964 346.542175,395.019287 345.529236,394.694092 
	C346.221283,393.442108 347.056763,392.366364 348.105316,391.571655 
	C357.658051,384.330780 360.260742,375.262024 356.915894,363.713287 
	C355.021790,357.173584 349.324188,354.870117 344.971466,351.000610 
z"/>
<path fill="#26B48E" opacity="1.000000" stroke="none" 
	d="
M268.976929,356.027649 
	C260.140869,350.546753 250.571915,348.074554 240.170990,348.990021 
	C236.061386,349.351715 231.949020,349.682220 227.376495,350.013000 
	C229.569672,348.870911 232.139450,347.084473 234.893677,346.729584 
	C246.292160,345.260803 257.591492,345.149780 267.572998,352.281525 
	C268.372192,352.852539 269.002869,353.659332 269.575317,354.813354 
	C269.213867,355.479401 269.059937,355.731873 268.976929,356.027649 
z"/>
<path fill="#26B48E" opacity="1.000000" stroke="none" 
	d="
M434.562866,379.110718 
	C435.003876,379.860077 435.002563,380.545380 434.533081,381.594818 
	C426.375824,381.956116 418.686768,381.953308 410.999298,381.603882 
	C410.998657,380.564148 410.996460,379.871002 410.994232,379.177856 
	C418.703003,379.134155 426.411743,379.090424 434.562866,379.110718 
z"/>
<path fill="#29B38C" opacity="1.000000" stroke="none" 
	d="
M297.122437,358.505859 
	C297.460876,359.805298 297.958801,361.564789 297.964874,363.326019 
	C298.023987,380.480896 297.968109,397.636261 298.053040,414.790955 
	C298.061340,416.465851 298.793243,418.137177 299.703888,420.120789 
	C300.423950,420.699005 300.683624,420.894653 301.051331,421.347321 
	C302.379822,422.361328 303.654541,423.046326 304.929260,423.731354 
	C297.040619,424.297882 297.040100,424.297882 297.041565,416.757812 
	C297.045349,397.494141 297.049652,378.230438 297.122437,358.505859 
z"/>
<path fill="#33BC98" opacity="1.000000" stroke="none" 
	d="
M186.128082,406.363831 
	C185.955704,405.581940 185.977066,405.115906 186.006653,404.298645 
	C186.450729,403.955048 186.886566,403.962708 187.870941,403.877838 
	C188.696304,403.596558 188.888260,403.343506 188.995392,403.026123 
	C189.452271,402.140228 189.692978,400.987610 190.402084,400.412903 
	C194.190186,397.342834 192.855118,394.600098 190.011414,391.511536 
	C196.398026,391.664459 197.541885,393.894867 194.256470,399.354523 
	C193.097397,401.280640 192.492676,403.654236 191.005081,405.228394 
	C190.027161,406.263275 187.922104,406.233002 186.128082,406.363831 
z"/>
<path fill="#33BC98" opacity="1.000000" stroke="none" 
	d="
M410.597778,379.119690 
	C410.996460,379.871002 410.998657,380.564148 410.836578,381.976990 
	C410.520447,386.266266 407.190369,390.956238 413.979645,392.079041 
	C413.984131,392.756287 413.988647,393.433533 413.994385,394.449371 
	C407.793884,395.131378 406.727478,394.331512 407.117004,387.972748 
	C407.306183,384.884979 404.760956,380.458771 410.597778,379.119690 
z"/>
<path fill="#33BC98" opacity="1.000000" stroke="none" 
	d="
M151.605042,399.947418 
	C151.981873,399.922974 151.993607,400.381470 151.993286,400.610748 
	C148.543533,402.840057 145.263779,405.278870 141.590256,406.699432 
	C138.718704,407.809875 136.822067,405.619354 135.942307,402.418121 
	C136.465332,401.861420 137.050858,401.676117 137.819275,401.236877 
	C140.217850,403.960175 142.665100,404.415405 145.824509,402.172577 
	C147.368469,401.076569 149.411224,400.683228 151.605042,399.947418 
z"/>
<path fill="#26B48E" opacity="1.000000" stroke="none" 
	d="
M305.283020,423.804993 
	C303.654541,423.046326 302.379822,422.361328 301.505737,421.343140 
	C304.938385,421.014954 307.970428,421.019989 311.002441,421.024994 
	C309.856995,421.790924 308.711548,422.556824 307.317383,423.541840 
	C306.591400,423.800171 306.114075,423.839386 305.283020,423.804993 
z"/>
<path fill="#F7F8F8" opacity="1.000000" stroke="none" 
	d="
M328.889038,317.512329 
	C328.632751,311.225616 328.445496,304.477234 328.494019,297.398010 
	C328.805878,303.728302 328.881989,310.389465 328.889038,317.512329 
z"/>
<path fill="#F7F8F8" opacity="1.000000" stroke="none" 
	d="
M316.651917,251.155151 
	C316.440704,251.357758 315.911163,251.501678 315.224915,251.469849 
	C315.489990,251.228195 315.911774,251.162323 316.651917,251.155151 
z"/>
<path fill="#F7F8F8" opacity="1.000000" stroke="none" 
	d="
M301.655640,251.170715 
	C301.433502,251.375290 300.892731,251.496384 300.196777,251.437271 
	C300.473419,251.200455 300.905212,251.143829 301.655640,251.170715 
z"/>
<path fill="#26B48E" opacity="1.000000" stroke="none" 
	d="
M387.944305,381.003540 
	C387.944305,381.003540 388.361511,381.000671 388.569855,381.000244 
	C388.919128,381.362946 388.824341,381.647644 388.267273,381.944580 
	C388.040710,382.035217 387.924835,381.928802 387.912537,381.672974 
	C387.900269,381.417145 387.944305,381.003540 387.944305,381.003540 
z"/>
<path fill="#2DB691" opacity="1.000000" stroke="none" 
	d="
M269.253540,356.021973 
	C269.059937,355.731873 269.213867,355.479401 269.626984,355.149475 
	C269.815247,355.028778 269.989624,355.480408 270.034882,355.718231 
	C269.896790,355.976135 269.713440,355.996216 269.253540,356.021973 
z"/>
<path fill="#000000" opacity="1.000000" stroke="none" 
	d="
M337.110321,167.468338 
	C349.968231,173.922623 350.814728,187.552521 345.965851,197.728729 
	C342.832733,204.304016 336.408478,206.150208 329.840393,206.902573 
	C325.684906,207.378601 321.430511,206.991470 317.110443,206.991470 
	C317.110443,193.159485 317.110443,179.779846 317.110443,165.487854 
	C323.865875,166.072556 330.334045,166.632385 337.110321,167.468338 
z"/>
<path fill="#000000" opacity="1.000000" stroke="none" 
	d="
M248.013184,209.091232 
	C240.221130,207.389877 233.619492,204.624130 229.807922,197.396561 
	C225.779694,189.758224 227.886063,174.241150 234.515991,169.262772 
	C241.451660,164.054810 251.581772,162.545441 260.290710,168.809341 
	C271.062744,176.557159 271.603119,191.641129 264.448639,201.264801 
	C261.299438,205.500900 253.902756,206.579315 248.013184,209.091232 
z"/>
<path fill="#000000" opacity="1.000000" stroke="none" 
	d="
M237.968155,292.435791 
	C239.968567,287.169403 241.933716,282.321320 243.973282,277.504791 
	C244.222046,276.917297 244.791870,276.278809 245.359970,276.076172 
	C245.769608,275.930023 246.779739,276.341644 246.914703,276.720703 
	C248.775269,281.946747 250.530411,287.210327 252.453735,292.884613 
	C247.795212,294.021149 242.937424,295.241669 237.968155,292.435791 
z"/>
<path fill="#000000" opacity="1.000000" stroke="none" 
	d="
M166.148376,287.073334 
	C161.131989,287.840729 161.112244,284.310852 161.105438,281.653961 
	C161.093353,276.935883 161.706055,272.216156 162.121399,266.637085 
	C167.774582,267.151886 173.302094,267.340424 178.706207,268.256653 
	C182.389633,268.881134 185.494583,274.460907 185.021515,278.290680 
	C184.514084,282.398468 179.933762,286.755371 175.606934,287.009705 
	C172.621567,287.185181 169.618393,287.057953 166.148376,287.073334 
z"/>
<path fill="#29B38C" opacity="1.000000" stroke="none" 
	d="
M254.696167,363.056580 
	C267.643341,370.703949 271.535187,385.622925 264.503693,398.147797 
	C257.731049,410.211609 242.061966,415.062866 229.215256,404.804291 
	C215.387894,393.762634 218.942017,376.337372 227.071396,366.751190 
	C229.063919,364.401581 232.441925,362.605072 235.492874,361.904999 
	C241.742538,360.471039 248.219925,359.678009 254.696167,363.056580 
M257.073029,368.419037 
	C250.200226,364.686737 244.238770,361.312103 235.208054,365.290283 
	C223.745468,370.339691 220.391190,387.254852 225.673889,396.247162 
	C229.869019,403.388184 238.379120,408.901733 250.043274,406.084198 
	C256.564880,404.508881 263.923340,397.002441 264.887360,389.092346 
	C265.830872,381.350464 262.702606,374.667145 257.073029,368.419037 
z"/>
<path fill="#2DB691" opacity="1.000000" stroke="none" 
	d="
M159.140518,365.627777 
	C158.773849,362.787933 158.491425,359.587769 158.483704,356.386963 
	C158.482849,356.030090 160.043716,355.669434 160.934692,355.627441 
	C160.427872,359.051971 159.866684,362.159607 159.140518,365.627777 
z"/>
<path fill="#2DB691" opacity="1.000000" stroke="none" 
	d="
M153.947479,371.346802 
	C154.461304,371.203094 155.041794,371.340729 155.802200,371.722626 
	C155.326126,371.853973 154.670151,371.741058 153.947479,371.346802 
z"/>
<path fill="#2DB691" opacity="1.000000" stroke="none" 
	d="
M152.106262,370.245270 
	C152.326202,370.111084 152.591278,370.290131 152.908813,370.777039 
	C152.689758,370.915436 152.419800,370.739960 152.106262,370.245270 
z"/>
<path fill="#29B38C" opacity="1.000000" stroke="none" 
	d="
M188.776581,403.126526 
	C188.888260,403.343506 188.696304,403.596558 188.197968,403.882904 
	C188.091934,403.668915 188.285706,403.417694 188.776581,403.126526 
z"/>
<path fill="#06C88D" opacity="1.000000" stroke="none" 
	d="
M387.806122,380.654480 
	C387.944305,381.003540 387.900269,381.417145 387.855042,381.619324 
	C387.258331,384.525574 385.835144,387.394409 386.309570,389.904541 
	C388.153290,399.659821 392.490601,406.580444 403.486389,409.671326 
	C410.363495,411.604462 415.677124,409.555634 421.518097,408.424591 
	C425.663910,407.621765 428.171570,401.728973 426.864868,396.936127 
	C425.856628,393.238129 422.609833,392.611328 419.146088,392.684021 
	C417.688049,392.714600 416.219879,392.263306 414.367981,392.055054 
	C407.190369,390.956238 410.520447,386.266266 410.834991,382.323547 
	C418.686768,381.953308 426.375824,381.956116 434.533386,381.937500 
	C437.915375,381.668030 439.071075,382.800018 439.091797,385.914673 
	C439.135773,392.534607 440.211487,399.200836 439.666504,405.748383 
	C439.408173,408.852234 437.046356,412.529419 434.522949,414.565399 
	C424.193817,422.899170 411.920013,422.847229 399.256073,421.734985 
	C395.411469,420.271240 391.622711,418.869476 388.296631,416.743744 
	C385.332581,414.849457 382.545776,412.439575 380.262207,409.761444 
	C371.852448,399.898407 368.916138,388.344269 372.324005,375.915955 
	C376.150604,361.960571 389.402649,349.707550 404.192627,349.188080 
	C411.841156,348.919403 419.801453,349.874054 427.186584,351.877228 
	C434.832397,353.951111 435.173492,355.949310 432.982117,363.580688 
	C428.631531,367.523193 424.862183,365.745758 420.637848,363.257294 
	C409.297302,356.576721 390.793884,363.714813 387.238251,375.960083 
	C386.861511,377.257538 387.500275,378.849884 387.806122,380.654480 
z"/>
<path fill="#04C88D" opacity="1.000000" stroke="none" 
	d="
M311.389923,420.918640 
	C307.970428,421.019989 304.938385,421.014954 301.451965,421.014099 
	C300.683624,420.894653 300.423950,420.699005 300.097229,420.216919 
	C299.976257,400.508423 299.976959,381.014374 299.975861,361.520355 
	C299.975800,360.354126 300.060242,359.177399 299.937347,358.023438 
	C299.203064,351.128418 300.108978,349.927002 307.234802,350.033386 
	C319.524719,350.216797 331.810699,350.661346 344.534912,350.998474 
	C349.324188,354.870117 355.021790,357.173584 356.915894,363.713287 
	C360.260742,375.262024 357.658051,384.330780 348.105316,391.571655 
	C347.056763,392.366364 346.221283,393.442108 345.143372,394.692566 
	C342.797363,400.172974 347.113403,403.059662 349.227905,406.630646 
	C351.847595,411.054718 354.837006,415.259827 357.908020,419.926178 
	C347.024445,422.663574 344.676178,421.851227 339.537415,414.200806 
	C336.696838,409.971832 334.043579,405.614532 331.118561,401.446503 
	C330.363647,400.370728 328.901917,399.790955 327.291504,398.584717 
	C322.889374,398.145020 318.960571,398.103912 315.031799,398.062775 
	C314.701111,398.151184 314.432526,398.331909 313.820312,399.101196 
	C313.286499,402.727112 313.158356,405.856689 313.030243,408.986298 
	C312.612640,412.928284 312.195038,416.870270 311.389923,420.918640 
M313.429504,365.597595 
	C313.284790,370.386017 313.352325,375.192993 312.935669,379.957642 
	C312.518341,384.729675 315.635132,385.529907 319.067841,385.855591 
	C322.114838,386.144684 325.236877,386.235870 328.271362,385.909149 
	C331.825104,385.526520 335.618866,385.231049 338.765717,383.746857 
	C342.828308,381.830750 344.843048,377.931396 345.002686,373.253845 
	C345.162964,368.557281 342.532196,364.314972 338.907928,363.455902 
	C331.638153,361.732727 323.944763,361.775391 316.416443,361.222046 
	C316.001892,361.191589 315.498322,362.372131 314.537933,363.329742 
	C314.368866,363.893402 314.199829,364.457031 313.429504,365.597595 
z"/>
<path fill="#26B48E" opacity="1.000000" stroke="none" 
	d="
M315.326904,398.341736 
	C318.960571,398.103912 322.889374,398.145020 326.918518,398.569885 
	C323.219940,398.842651 319.420959,398.731659 315.326904,398.341736 
z"/>
<path fill="#26B48E" opacity="1.000000" stroke="none" 
	d="
M313.313599,408.698181 
	C313.158356,405.856689 313.286499,402.727112 313.707642,399.320496 
	C313.866119,402.165680 313.731537,405.287872 313.313599,408.698181 
z"/>
<path fill="#000000" opacity="1.000000" stroke="none" 
	d="
M257.391296,368.624817 
	C262.702606,374.667145 265.830872,381.350464 264.887360,389.092346 
	C263.923340,397.002441 256.564880,404.508881 250.043274,406.084198 
	C238.379120,408.901733 229.869019,403.388184 225.673889,396.247162 
	C220.391190,387.254852 223.745468,370.339691 235.208054,365.290283 
	C244.238770,361.312103 250.200226,364.686737 257.391296,368.624817 
z"/>
<path fill="#28B590" opacity="1.000000" stroke="none" 
	d="
M315.036194,362.988953 
	C315.498322,362.372131 316.001892,361.191589 316.416443,361.222046 
	C323.944763,361.775391 331.638153,361.732727 338.907928,363.455902 
	C342.532196,364.314972 345.162964,368.557281 345.002686,373.253845 
	C344.843048,377.931396 342.828308,381.830750 338.765717,383.746857 
	C335.618866,385.231049 331.825104,385.526520 328.271362,385.909149 
	C325.236877,386.235870 322.114838,386.144684 319.067841,385.855591 
	C315.635132,385.529907 312.518341,384.729675 312.935669,379.957642 
	C313.352325,375.192993 313.284790,370.386017 313.979980,365.513489 
	C314.959808,366.621063 315.389160,367.812744 315.897217,369.463470 
	C315.976471,373.070374 316.219330,376.241577 315.919556,379.360626 
	C315.489563,383.834473 317.997864,384.398102 321.408813,383.938263 
	C325.595062,383.373901 329.789246,382.813599 333.934143,382.013947 
	C337.568298,381.312805 341.144867,379.994293 341.872070,375.802856 
	C342.620880,371.486969 341.812958,367.547729 336.779846,365.590027 
	C336.077240,365.268127 335.555450,365.150726 335.009949,365.032318 
	C334.986206,365.031281 334.961945,364.990082 334.878967,364.594421 
	C333.313477,363.799225 331.839722,363.097931 330.346954,363.054932 
	C325.246948,362.908081 320.140320,362.992676 315.036194,362.988953 
z"/>
<path fill="#29B38C" opacity="1.000000" stroke="none" 
	d="
M314.787048,363.159363 
	C320.140320,362.992676 325.246948,362.908081 330.346954,363.054932 
	C331.839722,363.097931 333.313477,363.799225 334.414795,364.577026 
	C328.185455,364.955261 322.337280,364.955261 316.262909,364.955261 
	C316.091858,366.513641 315.955170,367.759064 315.818481,369.004456 
	C315.389160,367.812744 314.959808,366.621063 314.280640,365.225037 
	C314.199829,364.457031 314.368866,363.893402 314.787048,363.159363 
z"/>
<path fill="#000000" opacity="1.000000" stroke="none" 
	d="
M315.897217,369.463470 
	C315.955170,367.759064 316.091858,366.513641 316.262909,364.955261 
	C322.337280,364.955261 328.185455,364.955261 334.497803,364.972656 
	C334.961945,364.990082 334.986206,365.031281 335.145660,365.287292 
	C335.856964,365.627045 336.408844,365.710815 336.960693,365.794586 
	C341.812958,367.547729 342.620880,371.486969 341.872070,375.802856 
	C341.144867,379.994293 337.568298,381.312805 333.934143,382.013947 
	C329.789246,382.813599 325.595062,383.373901 321.408813,383.938263 
	C317.997864,384.398102 315.489563,383.834473 315.919556,379.360626 
	C316.219330,376.241577 315.976471,373.070374 315.897217,369.463470 
z"/>
<path fill="#29B38C" opacity="1.000000" stroke="none" 
	d="
M336.779846,365.590027 
	C336.408844,365.710815 335.856964,365.627045 335.169403,365.288330 
	C335.555450,365.150726 336.077240,365.268127 336.779846,365.590027 
z"/>
</svg>