<svg width="90" height="24" viewBox="0 0 90 24" fill="none" xmlns="http://www.w3.org/2000/svg">
<path d="M36.2531 0.0123787H44.5038C44.8288 0.0123787 45.1538 0.0123787 45.4789 0.0123787C46.8081 0.091275 47.6499 0.905152 47.6624 2.26715C47.6915 4.70878 47.7165 6.85559 47.6624 9.29307C47.6249 11.0412 47.6915 12.8392 47.3123 14.521C46.7147 17.2159 45.1652 19.6071 42.9463 21.2588C40.7273 22.9106 37.9867 23.7128 35.2239 23.5193C32.4994 23.3195 29.9311 22.1758 27.9644 20.2864C25.9976 18.3971 24.7565 15.8814 24.4564 13.1756C24.248 11.2862 24.3689 9.36366 24.3522 7.45769C24.3522 5.87977 24.3189 4.30184 24.3522 2.72807C24.3522 0.847018 25.1856 0.0289882 27.0274 0.0165309C30.0901 -7.88689e-05 33.1696 0.0123787 36.2531 0.0123787Z" fill="white"/>
<path d="M49.7879 2.97786C49.7879 0.801987 50.5713 0.0254822 52.7339 0.0130249C53.959 0.0130249 55.1841 0.0130249 56.4092 0.0130249C58.3719 0.0130249 59.2178 0.843512 59.2261 2.80761C59.2261 6.59878 59.2553 10.3858 59.2261 14.177C59.2261 14.9493 59.422 15.2068 60.2054 15.1528C61.2861 15.1037 62.369 15.1231 63.4473 15.2109C64.4765 15.3147 64.9474 15.7466 64.9891 16.7722C65.0516 18.4706 65.0516 20.1772 64.9891 21.8797C64.9516 22.9262 64.4474 23.3663 63.3973 23.4867C63.0181 23.5283 61.8388 23.5366 61.4555 23.5366H52.6381C50.1087 23.5366 49.7212 23.1587 49.7212 20.6008C49.7379 17.7273 49.7795 5.98007 49.7879 2.97786Z" fill="white"/>
<path d="M67.1089 11.9844C67.1089 9.00709 67.1089 6.03395 67.1089 3.05665C67.1089 0.793576 67.8923 0.0170711 70.1425 0.0129187C73.2052 0.0129187 76.2679 -0.0161484 79.3307 0.0129187C81.6886 0.0195743 83.969 0.85282 85.7724 2.36667C87.5757 3.88053 88.787 5.97844 89.194 8.29287C90.3316 14.235 85.6104 18.9273 79.539 19.0601C78.8807 19.0601 73.1969 18.9895 72.8718 19.1141C72.4801 19.4255 68.7549 23.2666 68.0506 23.2375C67.3464 23.2084 67.1797 22.1952 67.1797 22.1952C67.1797 22.1952 67.0631 21.3357 67.0631 20.908C67.0631 17.9307 67.0631 14.9575 67.0631 11.9844H67.1089Z" fill="white"/>
<path d="M0.0583381 11.9844C0.0583381 9.00709 0.0583381 6.03395 0.0583381 3.05665C0.0583381 0.793576 0.841734 0.0170711 3.09191 0.0129187C6.15466 0.0129187 9.2174 -0.0161484 12.2593 0.0129187C14.6182 0.016307 16.9006 0.84705 18.7064 2.3595C20.5121 3.87194 21.726 5.96956 22.1351 8.28457C23.2727 14.2267 18.5515 18.919 12.4802 19.0518C11.8259 19.0518 6.13799 18.9812 5.81296 19.1058C5.42126 19.4172 1.6918 23.2583 0.991746 23.2292C0.29169 23.2001 0.116676 22.1869 0.116676 22.1869C0.116676 22.1869 0 21.3274 0 20.8997C0 17.9224 0 14.9492 0 11.9761L0.0583381 11.9844Z" fill="white"/>
</svg>
